<svg version="1.1" id="Layer_1" xmlns="http://www.w3.org/2000/svg" xmlns:xlink="http://www.w3.org/1999/xlink" x="0px" y="0px"
	 width="100%" viewBox="0 0 1024 1024" enable-background="new 0 0 1024 1024" xml:space="preserve">
<path fill="#000000" opacity="1.000000" stroke="none" 
	d="
M792.000000,1025.000000 
	C790.933289,1025.000000 789.866577,1025.000000 788.275635,1024.567261 
	C787.702515,1023.137939 787.612549,1022.141479 787.610962,1021.144836 
	C787.592468,1009.828735 787.615479,998.512512 787.555176,987.196655 
	C787.543152,984.933960 787.944458,982.622803 784.079590,982.663513 
	C756.626221,982.952393 729.170593,983.025635 701.715576,983.146790 
	C688.562561,983.204895 675.409363,983.229553 662.256287,983.241577 
	C659.435791,983.244141 656.531799,983.346680 656.547852,987.107178 
	C656.601685,999.738525 655.676819,1012.384216 657.000000,1025.000000 
	C655.933289,1025.000000 654.866577,1025.000000 653.302490,1024.539917 
	C652.764587,1012.099854 652.583252,1000.117737 652.763794,988.141113 
	C652.822937,984.226074 651.668091,983.039612 647.678772,983.059326 
	C607.244080,983.259216 566.808411,983.291748 526.373047,983.277893 
	C522.815002,983.276672 521.293762,984.182373 521.527222,988.129700 
	C522.253174,1000.404419 522.537781,1012.701172 522.000000,1025.000000 
	C520.611084,1025.000000 519.222229,1025.000000 517.395508,1024.576050 
	C517.169312,1013.049255 517.471680,1001.947144 517.559631,990.843323 
	C517.614685,983.886719 516.580139,983.057678 509.866577,983.084778 
	C496.300812,983.139648 482.734711,983.128052 469.168762,983.124329 
	C443.904938,983.117371 418.640717,983.167114 393.377716,983.015747 
	C388.876831,982.988831 387.204132,984.518433 387.253174,989.099365 
	C387.381256,1001.063965 387.111267,1013.032837 387.000000,1025.000000 
	C385.285400,1025.000000 383.570801,1025.000000 381.564514,1024.609375 
	C381.607452,1012.761536 381.862976,1001.301147 382.309204,989.848145 
	C382.541687,983.880615 381.996643,983.021484 376.167053,983.047913 
	C336.609344,983.227234 297.053131,983.118408 257.501312,982.385132 
	C253.613297,982.313049 252.409821,983.681702 252.298828,987.624084 
	C251.947495,1000.103210 253.845154,1012.525818 253.000000,1025.000000 
	C251.933273,1025.000000 250.866562,1025.000000 249.270935,1024.662598 
	C248.451096,1012.222595 248.004059,1000.120544 247.951233,988.016785 
	C247.931915,983.591003 246.202667,982.234192 241.989883,982.277588 
	C224.050827,982.462219 206.109039,982.366211 188.169205,982.499268 
	C166.568100,982.659424 144.968216,983.039124 123.367142,983.105408 
	C118.941231,983.119019 117.104736,984.378479 117.174187,989.084900 
	C117.350800,1001.053101 117.087318,1013.027893 117.000000,1025.000000 
	C115.933281,1025.000000 114.866562,1025.000000 113.343147,1024.536133 
	C112.858810,1012.625732 113.207497,1001.184509 112.927460,989.729004 
	C112.806389,984.775940 111.410568,982.888428 106.369171,982.991028 
	C71.250626,983.706177 36.111084,982.304260 1.000000,984.000000 
	C1.000000,982.611084 1.000000,981.222229 1.435476,979.398254 
	C13.834744,978.873047 25.799360,978.841125 37.762035,978.671936 
	C45.506916,978.562317 45.642353,978.399048 45.669968,970.848145 
	C45.728405,954.870483 45.719891,938.892456 45.728355,922.914612 
	C45.731770,916.467041 45.505440,916.607788 38.877399,916.255554 
	C26.219641,915.582886 13.639063,917.590881 1.000000,917.000000 
	C1.000000,915.611084 1.000000,914.222229 1.465484,912.358154 
	C15.753592,911.543396 29.574661,911.026001 43.399197,910.905273 
	C64.888962,910.717590 86.381310,910.741028 107.872009,910.822632 
	C111.656677,910.836975 113.080719,909.860291 113.002121,905.700439 
	C112.694687,889.429932 112.799438,873.151306 112.777473,856.875732 
	C112.765808,848.232910 112.790329,848.232056 103.929947,848.250977 
	C102.930038,848.253113 101.930130,848.268677 100.930260,848.280762 
	C67.621338,848.681702 34.301624,847.584900 1.000000,849.000000 
	C1.000000,847.611084 1.000000,846.222229 1.358774,844.476257 
	C7.030815,844.033020 12.343819,843.903198 17.657412,843.871155 
	C25.129904,843.826111 32.602932,843.873718 40.075512,843.836792 
	C42.125580,843.826660 45.000614,843.486450 44.400928,841.002930 
	C42.676704,833.862488 45.941021,827.183350 45.599152,820.233459 
	C45.272995,813.602844 44.904182,806.969299 44.815296,800.333618 
	C44.752991,795.682251 45.108208,791.024109 45.319233,786.370911 
	C45.418804,784.175476 45.171749,782.197021 42.373699,782.178589 
	C28.582672,782.087830 14.791270,782.053955 1.000000,782.000000 
	C1.000000,780.611084 1.000000,779.222229 1.464222,777.345032 
	C35.398235,776.757874 68.856071,778.444702 102.326157,777.674072 
	C114.616554,777.391113 114.032303,780.215576 113.457443,765.578735 
	C112.902954,751.460510 111.932854,737.381470 113.476006,723.246216 
	C114.280853,715.873840 112.202530,714.260620 104.687653,714.408569 
	C89.717293,714.703491 74.735825,715.245239 59.773701,714.946289 
	C40.175610,714.554810 20.591146,714.279358 1.000000,715.000000 
	C1.000000,713.611084 1.000000,712.222229 1.454335,710.356934 
	C14.678417,709.963013 27.441153,710.681396 40.222614,709.809204 
	C43.945889,709.555176 45.867050,708.778259 45.295200,704.615295 
	C44.935543,701.996887 45.072723,699.296143 45.137909,696.635986 
	C45.475937,682.841370 44.674503,669.043152 45.519306,655.242188 
	C45.930000,648.532959 44.370697,647.411255 37.867432,647.286255 
	C25.578575,647.049988 13.280786,648.067139 1.000000,647.000000 
	C1.000000,645.933289 1.000000,644.866577 1.437144,643.331909 
	C7.836180,642.842224 13.798057,642.814270 19.759968,642.800049 
	C35.235214,642.763123 50.723530,642.324829 66.181824,642.820557 
	C79.924927,643.261292 93.689926,641.213440 107.404297,643.379944 
	C110.698441,643.900391 112.508133,642.142639 112.615906,638.894531 
	C112.781410,633.906372 112.780571,628.912476 112.829376,623.920776 
	C112.955978,610.972839 113.009071,598.023743 113.229965,585.077454 
	C113.293533,581.352234 111.729973,580.198914 108.128731,580.274719 
	C97.649567,580.495544 87.163956,580.530396 76.681953,580.464417 
	C65.064735,580.391357 53.448997,580.106567 41.832127,579.949707 
	C28.221443,579.765991 14.609932,579.391785 1.000000,580.000000 
	C1.000000,578.611084 1.000000,577.222229 1.390683,575.552124 
	C14.758201,576.096619 27.747669,575.530701 40.731129,575.628174 
	C43.845264,575.651611 44.615231,573.815002 44.655945,571.086426 
	C44.919163,553.446045 45.171688,535.804688 45.608269,518.168152 
	C45.706375,514.204956 44.190727,513.156311 40.367050,512.973816 
	C27.248281,512.347900 14.077197,513.954956 1.000000,512.000000 
	C1.000000,510.933289 1.000000,509.866547 1.370006,508.523407 
	C2.392278,508.360382 3.043530,508.566742 3.696955,508.573853 
	C36.283443,508.929321 68.871216,509.573578 101.456215,509.456146 
	C114.348137,509.409698 113.106697,511.268433 113.139198,498.131622 
	C113.177872,482.497711 113.518173,466.863495 113.848022,451.231995 
	C113.930458,447.325317 112.806335,445.334534 108.438354,445.611694 
	C102.972763,445.958466 97.474754,445.840179 91.990715,445.841949 
	C73.544388,445.847900 55.095718,445.990173 36.652561,445.740051 
	C24.769203,445.578857 12.865684,446.077545 1.000000,445.000000 
	C1.000000,443.611115 1.000000,442.222198 1.446408,440.377777 
	C3.718927,439.989685 5.566857,439.900024 7.367584,440.150177 
	C18.407351,441.683838 29.509371,441.669403 40.616138,441.635498 
	C43.695721,441.626068 45.591339,440.732208 45.654640,437.082611 
	C45.956955,419.651978 46.453674,402.224792 46.843208,384.795532 
	C46.976795,378.818176 46.337753,378.186676 40.371216,378.155853 
	C27.247559,378.088043 14.123748,378.050140 1.000000,378.000000 
	C1.000000,376.611115 1.000000,375.222198 1.440515,373.443665 
	C16.196091,373.982239 30.535301,373.285034 44.854706,373.671204 
	C65.995087,374.241211 87.154160,373.398743 108.284111,374.618439 
	C110.987717,374.774475 113.196861,374.297852 113.210152,370.644562 
	C113.273140,353.324585 113.523651,336.005310 113.613937,318.685333 
	C113.650513,311.669464 113.213585,311.367737 106.287521,311.306793 
	C71.192245,310.997894 36.092785,312.130798 1.000000,311.000000 
	C1.000000,309.933289 1.000000,308.866547 1.445851,307.312012 
	C4.552228,306.701691 7.193783,307.050934 9.833817,307.161133 
	C19.632940,307.570099 29.448355,307.738037 39.256680,307.705292 
	C43.287762,307.691803 45.905415,306.195251 45.815498,301.081421 
	C45.523243,284.460541 45.779465,267.830719 45.725941,251.204666 
	C45.704212,244.454544 45.115746,243.871307 38.348293,243.855530 
	C25.899044,243.826508 13.449450,243.943726 1.000000,244.000000 
	C1.000000,242.933273 1.000000,241.866562 1.462893,240.319595 
	C18.575352,240.287720 35.185493,238.888428 51.820110,238.760101 
	C70.638939,238.614914 89.459831,238.649704 108.279205,238.737656 
	C112.099792,238.755493 113.887688,237.289093 113.691261,233.450348 
	C113.623253,232.121246 113.688286,230.785522 113.686668,229.452820 
	C113.667519,213.672104 113.545647,197.890472 113.690216,182.111267 
	C113.732697,177.475021 111.938492,176.153091 107.423035,176.275192 
	C71.955490,177.234238 36.477451,177.178970 1.000000,177.000000 
	C1.000000,175.933273 1.000000,174.866562 1.450958,173.375076 
	C14.659031,171.865479 27.420822,171.258682 40.220398,172.255432 
	C43.757275,172.530853 45.624157,171.092194 45.914780,167.133087 
	C47.195229,149.689789 45.667660,132.260498 45.968563,114.829765 
	C46.039959,110.694023 44.453636,109.304131 40.337601,109.424324 
	C27.218128,109.807449 14.085459,109.772980 1.000000,111.000000 
	C1.000000,109.611107 1.000000,108.222221 1.466560,106.367706 
	C24.723137,105.760101 47.499168,104.700310 70.301155,105.121300 
	C82.615479,105.348663 94.944313,104.762413 107.259964,104.958923 
	C112.371292,105.040482 113.760788,103.233543 113.620377,98.277641 
	C113.282661,86.357933 113.704483,74.424774 113.130882,62.495129 
	C112.876244,57.199085 113.386391,51.869492 113.433372,46.554100 
	C113.451408,44.514668 113.314255,42.394783 110.274002,42.631721 
	C100.960861,43.357536 91.620972,42.442230 82.342102,42.708614 
	C57.520569,43.421207 32.705486,43.009708 7.889324,43.209263 
	C5.565449,43.227947 3.210337,42.986828 1.000000,44.000000 
	C1.000000,42.611111 1.000000,41.222221 1.369125,39.485451 
	C5.326068,40.554878 8.581633,37.760098 11.938830,38.166584 
	C21.120377,39.278271 30.111855,37.275108 39.198750,36.993568 
	C45.277897,36.805214 45.858227,36.091461 45.898712,29.868299 
	C45.961304,20.245720 45.969013,10.622785 46.000000,1.000000 
	C47.066719,1.000000 48.133438,1.000000 49.505779,1.401230 
	C48.905502,11.944465 49.488480,22.100203 49.736076,32.239922 
	C49.853546,37.050522 52.137917,38.276642 57.616920,38.063900 
	C66.918495,37.702744 76.227440,37.287586 85.532501,37.305275 
	C115.000557,37.361301 144.468094,37.656460 173.936188,37.743725 
	C181.028122,37.764725 181.486465,37.252899 181.478745,29.929804 
	C181.468567,20.286379 181.172913,10.643254 181.000000,1.000000 
	C182.066727,1.000000 183.133438,1.000000 184.675873,1.463883 
	C185.159195,11.735641 185.286392,21.545536 185.120514,31.350477 
	C185.045410,35.789047 186.720764,37.616528 191.247406,37.653591 
	C203.670837,37.755318 216.072586,37.342010 228.487411,37.051338 
	C249.377563,36.562233 270.294464,37.206249 291.200012,37.389721 
	C297.677094,37.446564 304.155579,37.489037 310.629883,37.665977 
	C314.473877,37.771034 315.997162,36.017509 315.948151,32.252239 
	C315.879089,26.947277 315.591370,21.658440 316.195618,16.323751 
	C316.768982,11.261829 317.093811,6.092466 316.000000,1.000000 
	C317.066711,1.000000 318.133453,1.000000 319.699585,1.459773 
	C320.246704,11.913628 320.427582,21.909729 320.275879,31.900784 
	C320.216003,35.846104 322.057220,37.403210 325.589539,37.493919 
	C334.697540,37.727821 343.865143,38.526180 352.897583,38.178265 
	C375.370636,37.312645 397.820862,38.086739 420.278229,37.936611 
	C429.554932,37.874596 438.795807,39.554680 448.129700,38.089134 
	C451.564423,37.549831 452.593658,36.228142 452.598694,32.966751 
	C452.615204,22.310987 452.849487,11.655559 453.000000,1.000000 
	C454.066711,1.000000 455.133453,1.000000 456.572876,1.397631 
	C456.865234,12.246726 456.952911,22.703518 456.621826,33.147034 
	C456.489105,37.334629 458.517792,38.408974 461.998657,38.374332 
	C466.804840,38.326504 471.664673,37.717812 476.406708,38.228958 
	C495.310852,40.266636 514.166565,37.361404 533.107605,38.013027 
	C548.439758,38.540493 563.893127,38.197468 579.289185,38.605843 
	C587.211792,38.815990 587.981018,37.998863 587.811890,29.885235 
	C587.611206,20.258492 587.273438,10.623645 588.000000,1.000000 
	C588.750000,1.000000 589.500000,1.000000 590.704346,1.463081 
	C591.246582,12.410464 591.417480,22.895090 591.376465,33.378887 
	C591.362549,36.922031 592.612610,38.949215 596.290710,38.498703 
	C603.595276,37.603989 610.961060,38.714455 618.204346,38.013485 
	C642.283081,35.683262 666.392334,37.409328 690.478027,36.902733 
	C699.599182,36.710892 708.679077,38.305019 717.837036,37.104931 
	C721.683899,36.600822 722.985779,34.952477 722.874390,31.294586 
	C722.717773,26.148758 722.604004,21.014765 723.208557,15.846352 
	C723.782532,10.939288 724.178467,5.930545 723.000000,1.000000 
	C724.066711,1.000000 725.133423,1.000000 726.666870,1.464778 
	C727.168884,11.747264 727.303223,21.566128 727.188660,31.382088 
	C727.145447,35.084152 728.360596,36.979450 732.277466,37.003769 
	C746.694214,37.093262 761.176453,38.221436 775.509277,37.202984 
	C792.134094,36.021675 808.696533,37.507072 825.259827,36.684555 
	C834.220154,36.239597 843.125000,37.824955 852.078796,36.985706 
	C855.601624,36.655514 856.859863,34.949005 856.829895,31.441750 
	C856.743347,21.295721 856.924133,11.147413 857.000000,1.000000 
	C858.066711,1.000000 859.133423,1.000000 860.472473,1.392177 
	C859.869385,12.235196 860.880981,22.678720 860.852783,33.125912 
	C860.844604,36.157902 862.779175,36.646008 865.143311,36.705368 
	C874.599976,36.942822 884.076111,37.671955 893.509949,37.308849 
	C919.266296,36.317497 945.002686,36.797028 970.750977,37.361618 
	C976.542725,37.488613 982.330688,38.007256 988.172546,37.368248 
	C991.929504,36.957294 993.611328,35.720768 993.210876,31.868153 
	C992.138428,21.549904 994.192078,11.302059 994.000000,1.000000 
	C995.066711,1.000000 996.133423,1.000000 997.461182,1.389431 
	C996.884033,11.573098 997.633545,21.391216 997.276855,31.187399 
	C997.117676,35.558475 998.998596,37.128807 1003.130676,37.205196 
	C1010.422852,37.340015 1017.710449,37.721672 1025.000000,38.000000 
	C1025.000000,39.388889 1025.000000,40.777779 1024.601562,42.476391 
	C1023.550476,42.666283 1022.898010,42.442497 1022.245361,42.441563 
	C992.965698,42.399475 963.685974,42.395706 934.406433,42.328274 
	C930.771667,42.319904 929.387939,43.988220 929.388733,47.515991 
	C929.392639,64.317665 929.306946,81.119453 929.215332,97.920982 
	C929.198669,100.965065 930.432678,102.714645 933.628174,102.581886 
	C950.166138,101.894722 966.711243,102.725441 983.237976,102.440979 
	C997.180725,102.200989 1011.083740,102.502571 1025.000000,103.000000 
	C1025.000000,104.388893 1025.000000,105.777779 1024.610474,107.509048 
	C1017.420593,106.930504 1010.614685,108.159309 1003.823303,107.818756 
	C998.833313,107.568535 997.260681,109.664345 997.206238,114.598259 
	C997.022949,131.210770 997.989258,147.847290 996.428284,164.435654 
	C996.065491,168.291336 997.737122,169.877319 1001.587891,169.845230 
	C1009.390991,169.780167 1017.195862,169.935516 1025.000000,170.000000 
	C1025.000000,171.066727 1025.000000,172.133438 1024.531738,173.619629 
	C1010.584717,174.061691 997.106079,174.090195 983.627441,174.105362 
	C967.136963,174.123932 950.646423,174.134659 934.155945,174.140533 
	C931.127502,174.141602 928.369690,174.364700 928.379578,178.489044 
	C928.423218,196.648911 928.432861,214.808914 928.422485,232.968857 
	C928.420898,235.708313 929.378357,237.522049 932.371521,237.609375 
	C941.179016,237.866379 949.989929,238.358856 958.794556,238.269730 
	C970.249512,238.153763 981.697205,237.400894 993.152588,237.231735 
	C1003.766052,237.074966 1014.392822,238.607666 1025.000000,237.000000 
	C1025.000000,238.714600 1025.000000,240.429199 1024.531250,242.560486 
	C1019.236816,242.971573 1014.409302,242.882263 1009.585449,242.975952 
	C994.558472,243.267776 996.290955,240.446716 995.602966,257.150208 
	C995.043091,270.741730 995.742493,284.381439 995.678162,297.998810 
	C995.650818,303.783142 996.130676,304.620575 1002.068298,304.740356 
	C1009.710876,304.894531 1017.355957,304.919434 1025.000000,305.000000 
	C1025.000000,306.388885 1025.000000,307.777802 1024.667236,309.541382 
	C1023.674622,309.832001 1023.014221,309.670746 1022.354919,309.674927 
	C992.742249,309.862000 963.129822,310.105652 933.516846,310.213898 
	C929.509888,310.228546 928.355957,312.019623 928.373108,315.711060 
	C928.450562,332.353516 928.377625,348.996674 928.362549,365.639557 
	C928.356201,372.585510 928.609497,372.768250 935.778137,372.755676 
	C957.726379,372.717102 979.675720,372.839264 1001.622559,372.654602 
	C1009.411682,372.589111 1017.249512,373.604553 1025.000000,372.000000 
	C1025.000000,373.388885 1025.000000,374.777802 1024.602539,376.473114 
	C1016.076965,375.891632 1007.929260,376.527893 999.790833,376.489990 
	C997.051270,376.477234 995.368774,377.828491 995.363037,380.734009 
	C995.327026,398.861816 995.320740,416.989685 995.275574,435.117432 
	C995.268127,438.120209 997.011536,439.392944 999.660706,439.380127 
	C1008.107544,439.339203 1016.553650,439.138824 1025.000000,439.000000 
	C1025.000000,440.388885 1025.000000,441.777802 1024.531616,443.603577 
	C994.234619,444.117096 964.405762,444.278107 934.577637,444.184479 
	C929.786682,444.169464 928.191162,445.648895 928.247986,450.513397 
	C928.444580,467.342041 928.219177,484.175568 928.165405,501.007263 
	C928.145752,507.168976 928.817261,507.791534 935.091858,507.790466 
	C956.088928,507.786926 977.086914,507.918304 998.082581,507.750214 
	C1007.053467,507.678406 1016.070251,508.690277 1025.000000,507.000000 
	C1025.000000,508.388885 1025.000000,509.777802 1024.605713,511.460999 
	C1015.740417,510.897064 1007.247253,511.583984 998.767029,511.382385 
	C996.002075,511.316681 994.968384,512.605042 994.993958,515.358643 
	C995.160828,533.341736 995.319092,551.326111 995.264221,569.309326 
	C995.251038,573.611450 997.189209,574.754272 1001.045776,574.733154 
	C1009.029785,574.689453 1017.015198,574.896240 1025.000000,575.000000 
	C1025.000000,576.066711 1025.000000,577.133423 1024.597168,578.666138 
	C1022.381042,579.313293 1020.559875,579.709900 1018.755676,579.643555 
	C990.316650,578.598572 961.865173,579.842896 933.427185,579.130493 
	C929.406738,579.029846 928.235474,580.843506 928.237671,584.543579 
	C928.248230,602.348145 928.164001,620.153015 928.000305,637.956787 
	C927.974670,640.740479 928.901428,641.855469 931.725098,641.834167 
	C943.037170,641.748840 954.350342,641.766602 965.662964,641.794922 
	C985.442017,641.844360 1005.221008,641.929749 1025.000000,642.000000 
	C1025.000000,643.388916 1025.000000,644.777771 1024.612061,646.442932 
	C1015.775330,645.580688 1007.299194,646.816040 998.835571,646.446655 
	C995.642944,646.307373 995.307373,648.771423 995.307312,651.315918 
	C995.306702,668.609375 995.367493,685.903931 995.177490,703.195557 
	C995.129028,707.605652 996.851013,709.045410 1001.085693,708.951538 
	C1009.052856,708.774841 1017.028137,708.963318 1025.000000,709.000000 
	C1025.000000,710.066711 1025.000000,711.133423 1024.583008,712.647217 
	C1020.045410,713.682007 1015.917847,713.251343 1011.789062,713.247131 
	C986.153198,713.220703 960.517151,713.293335 934.881226,713.363647 
	C928.703186,713.380615 928.336792,713.768127 928.314575,719.878784 
	C928.255249,736.194580 928.241577,752.510498 928.173218,768.826233 
	C928.140808,776.574890 928.674744,777.066101 936.341064,776.487610 
	C955.594849,775.034607 974.867859,776.746338 994.137939,776.188660 
	C1004.408875,775.891541 1014.711609,776.693909 1025.000000,777.000000 
	C1025.000000,778.066711 1025.000000,779.133423 1024.531250,780.610107 
	C1015.735107,780.997131 1007.402100,781.143860 999.082764,780.871765 
	C995.503174,780.754700 994.325867,782.047058 994.362366,785.443909 
	C994.550415,802.927795 994.712219,820.412964 994.690247,837.897400 
	C994.685547,841.598328 996.043579,842.729858 999.644043,842.896301 
	C1008.102661,843.287415 1016.545349,843.473694 1025.000000,843.000000 
	C1025.000000,844.388916 1025.000000,845.777771 1024.646729,847.479248 
	C1020.112671,846.492188 1015.830444,847.718140 1011.632996,847.634460 
	C985.479187,847.113037 959.310181,847.362671 933.146423,847.304016 
	C929.904053,847.296692 928.213501,848.380493 928.227783,851.935059 
	C928.298706,869.598145 928.273743,887.261902 928.200317,904.925110 
	C928.185547,908.473145 929.640625,910.004883 933.243347,910.127930 
	C946.682373,910.586731 960.120605,909.943542 973.558350,910.004944 
	C990.696716,910.083069 1007.852600,910.130249 1025.000000,910.000000 
	C1025.000000,911.066711 1025.000000,912.133423 1024.542480,913.586792 
	C1016.948853,913.976685 1009.807251,914.150757 1002.678345,913.923218 
	C997.929688,913.771545 996.245544,915.662720 996.296265,920.379639 
	C996.477661,937.257629 996.344910,954.138733 996.384949,971.018494 
	C996.400024,977.365479 996.793945,977.666077 1003.170532,977.726501 
	C1010.447266,977.795471 1017.723511,977.906921 1025.000000,978.000000 
	C1025.000000,979.388916 1025.000000,980.777771 1024.653442,982.453491 
	C1019.637817,981.606812 1014.853088,982.465088 1010.178345,982.380920 
	C984.590393,981.920715 958.989258,982.233093 933.392822,982.173462 
	C929.478088,982.164368 928.187927,983.817871 928.205444,987.597168 
	C928.263367,1000.064209 928.086670,1012.532288 928.000000,1025.000000 
	C926.611084,1025.000000 925.222229,1025.000000 923.274719,1024.656494 
	C921.935730,1012.356567 922.875977,1000.411804 923.031067,988.463135 
	C923.103638,982.872498 922.662720,982.120850 916.967346,982.130737 
	C877.532776,982.199280 838.098145,982.335632 798.663879,982.250122 
	C793.868530,982.239746 792.207947,983.722290 792.271423,988.564453 
	C792.430664,1000.706360 792.121399,1012.854431 792.000000,1025.000000 
M721.666138,972.005981 
	C721.444946,954.753235 721.101807,937.500610 721.083740,920.247681 
	C721.078918,915.622498 719.341614,914.180481 714.879700,914.195007 
	C675.275818,914.323792 635.671509,914.341309 596.067505,914.261597 
	C591.851501,914.253113 590.093323,915.533508 590.154236,919.982178 
	C590.386597,936.952637 590.284363,953.927429 590.428955,970.899536 
	C590.479614,976.842346 591.923828,978.297607 597.790649,978.582397 
	C606.269470,978.994019 614.799866,977.963257 623.200378,978.296265 
	C641.956543,979.039856 660.695862,978.192505 679.438354,978.697876 
	C690.553467,978.997559 701.755310,980.085144 712.775513,978.053894 
	C715.986023,977.462097 720.987549,978.437500 721.666138,972.005981 
M674.999756,377.470001 
	C672.841125,377.577393 670.681580,377.794342 668.524048,377.775421 
	C644.572815,377.565399 620.624573,376.811584 596.669739,377.925690 
	C592.069946,378.139618 590.215759,379.474518 590.287842,384.381897 
	C590.536926,401.360596 590.470703,418.346405 590.296631,435.327148 
	C590.252502,439.629456 591.845520,441.384460 596.089111,441.375214 
	C605.559937,441.354584 615.040955,441.845367 624.500244,441.554962 
	C646.408508,440.882355 668.308777,441.702576 690.212280,441.548126 
	C698.367432,441.490601 706.527222,441.592010 714.679565,441.814087 
	C718.728149,441.924377 720.891113,440.750031 720.853088,436.210480 
	C720.805908,430.572662 721.489502,424.932190 721.556274,419.289276 
	C721.697388,407.358398 721.434814,395.419281 721.773560,383.495941 
	C721.904663,378.883118 720.475830,377.233521 715.881592,377.300812 
	C702.564270,377.495911 689.242554,377.394531 674.999756,377.470001 
M518.681519,479.623871 
	C518.452576,469.975433 518.139160,460.327881 518.035034,450.678101 
	C517.991638,446.654602 516.319153,445.057648 512.271057,445.132019 
	C502.781128,445.306458 493.285980,445.183685 483.793060,445.213135 
	C453.323608,445.307617 422.854248,445.465790 392.384827,445.460541 
	C388.363159,445.459839 387.182709,447.139984 387.204102,450.871429 
	C387.302460,468.017456 387.220245,485.164429 387.265533,502.310883 
	C387.282227,508.639923 388.488464,509.675873 395.036469,509.443878 
	C411.840057,508.848572 428.644958,508.995056 445.455292,509.145203 
	C468.069763,509.347260 490.687164,509.206848 513.302612,509.331451 
	C517.504761,509.354584 518.805542,507.469269 518.716797,503.522980 
	C518.544983,495.881836 518.674316,488.233917 518.681519,479.623871 
M439.772247,979.231689 
	C440.764069,979.285278 441.788544,979.527771 442.742676,979.363098 
	C451.584717,977.836853 451.786255,977.643066 451.788696,968.560120 
	C451.792847,953.238464 451.756256,937.916565 451.648895,922.595337 
	C451.593628,914.705139 451.210419,914.536194 443.493286,914.340393 
	C435.017792,914.125305 426.556763,914.594910 418.073883,914.462280 
	C395.262146,914.105469 372.440979,914.307922 349.623749,914.370667 
	C341.803162,914.392151 333.982971,914.644897 326.163177,914.817993 
	C323.342926,914.880432 321.298553,915.822693 321.301270,919.152771 
	C321.316101,937.294556 321.268463,955.436462 321.330719,973.578003 
	C321.340637,976.469666 322.899109,977.682312 326.000580,978.208618 
	C332.860016,979.372864 339.600861,977.498901 346.322662,977.954651 
	C361.743073,979.000122 377.154755,977.694580 392.580963,978.457764 
	C408.006714,979.220947 423.484772,978.927979 439.772247,979.231689 
M651.590149,445.711700 
	C640.623291,444.804718 629.638245,445.442108 618.663879,445.399323 
	C588.528625,445.281830 558.392273,445.427948 528.257019,445.311981 
	C523.860779,445.295074 521.715576,446.685455 521.870544,451.283539 
	C522.049866,456.604950 521.998047,461.935303 521.987549,467.261688 
	C521.964905,478.751465 521.880005,490.241150 521.869141,501.730927 
	C521.863098,508.088318 522.621948,508.789246 529.121948,508.789764 
	C531.786865,508.789978 534.451843,508.740631 537.116760,508.743347 
	C573.417419,508.779938 609.718079,508.837738 646.018738,508.848358 
	C653.062561,508.850433 653.588989,508.449066 653.651855,501.648773 
	C653.805786,485.001526 653.792969,468.352539 653.783630,451.704285 
	C653.782593,449.768005 654.125427,447.631256 651.590149,445.711700 
M824.123169,977.684570 
	C832.609192,977.597473 841.100769,977.668213 849.579590,977.374390 
	C856.657104,977.129150 857.638367,976.212280 857.295166,968.936646 
	C856.533386,952.787842 856.840820,936.641724 857.209595,920.505493 
	C857.331909,915.155640 855.333191,914.153442 850.544128,914.168030 
	C829.396118,914.232605 808.241211,913.584595 787.100159,913.917480 
	C768.610840,914.208679 750.133484,913.757141 731.650635,913.866333 
	C726.951416,913.894043 725.263489,915.684692 725.246643,920.438660 
	C725.191284,936.087524 726.198059,951.730957 725.446716,967.383911 
	C725.336182,969.686707 725.831909,972.020081 726.066467,974.337341 
	C726.310608,976.749451 727.707703,977.825989 730.084106,977.831787 
	C746.722473,977.872070 763.360901,977.976074 779.999207,977.961365 
	C794.427185,977.948608 808.855103,977.806519 824.123169,977.684570 
M658.173889,229.414566 
	C658.117859,238.732468 658.117920,238.779556 667.434082,238.763474 
	C680.584778,238.740753 693.744324,238.311234 706.883301,238.670425 
	C718.650330,238.992096 730.359680,237.239426 742.134460,238.289230 
	C756.386475,239.559891 770.687683,238.408676 784.962646,238.787720 
	C787.570374,238.856979 789.462585,238.301254 789.509766,234.991043 
	C789.765076,217.054794 789.974548,199.114548 790.583923,181.188721 
	C790.767944,175.775589 788.418640,175.091919 783.842896,175.118073 
	C745.883911,175.334869 707.923401,175.270676 669.964172,175.467331 
	C658.733154,175.525497 658.964783,173.081619 658.463135,186.983322 
	C657.965088,200.787796 658.277283,214.621490 658.173889,229.414566 
M718.500977,445.255188 
	C700.010010,445.320007 681.518982,445.384766 663.028015,445.449707 
	C660.109863,445.459930 657.132568,445.235626 657.374146,449.659332 
	C658.347534,467.480743 657.282104,485.303711 657.261414,503.126526 
	C657.256348,507.470856 658.808228,508.936340 663.169922,508.864990 
	C679.132751,508.603912 695.101379,508.561035 711.066895,508.632141 
	C735.514465,508.741058 759.958740,508.810608 784.390320,507.718018 
	C786.563416,507.620850 789.049744,507.892273 789.175415,504.741669 
	C789.406128,498.959290 789.923584,493.139496 789.523071,487.390930 
	C788.701782,475.604431 789.409912,463.824341 789.153564,452.044250 
	C789.018738,445.847839 788.809204,445.191193 782.491272,445.192261 
	C761.494507,445.195709 740.497681,445.228577 718.500977,445.255188 
M465.637177,978.530823 
	C476.722748,978.627136 487.814484,978.525757 498.892395,978.869080 
	C513.208191,979.312805 527.480286,978.129028 541.775391,978.108887 
	C553.721985,978.092041 565.670349,978.369324 577.615601,978.624329 
	C585.003906,978.781982 586.350220,977.758362 586.318970,970.872314 
	C586.244080,954.389648 586.037537,937.907593 585.960632,921.424927 
	C585.929565,914.767944 585.571655,914.286926 578.940430,914.290405 
	C540.127686,914.310974 501.314758,914.408447 462.502472,914.288208 
	C457.717651,914.273376 456.006714,915.815979 456.060516,920.623047 
	C456.246643,937.244324 456.058472,953.869385 456.132416,970.492493 
	C456.164307,977.667114 457.147980,978.441040 465.637177,978.530823 
M631.423401,238.703018 
	C636.736938,238.889557 642.046082,238.574951 647.377014,239.136658 
	C650.379333,239.452988 653.866760,239.389435 653.824463,234.446198 
	C653.675171,216.988922 654.837463,199.532425 653.977539,182.073761 
	C653.648926,175.402039 653.367493,175.204758 646.557251,175.217773 
	C629.401855,175.250549 612.246643,175.343124 595.091248,175.376129 
	C573.439941,175.417801 551.788635,175.424118 530.137329,175.445770 
	C526.673950,175.449234 523.190308,175.389206 523.183655,180.341385 
	C523.159241,198.462646 523.169495,216.584244 523.043274,234.704865 
	C523.012512,239.128448 525.222412,240.030823 529.075806,239.655319 
	C533.541016,239.220200 538.041077,238.970398 542.527344,238.950455 
	C571.836548,238.820175 601.146179,238.773956 631.423401,238.703018 
M446.928375,240.709305 
	C470.586670,238.172379 494.431854,241.602554 518.433167,238.665512 
	C518.673401,236.574600 519.157837,234.610153 519.081543,232.667725 
	C518.434937,216.196014 518.970276,199.723679 518.901550,183.252548 
	C518.873413,176.500153 518.389404,176.223892 511.711945,176.213333 
	C486.258575,176.173080 460.805237,176.147125 435.351868,176.128159 
	C421.537750,176.117874 407.723450,176.174240 393.909668,176.108490 
	C390.127930,176.090485 388.063293,177.158661 388.110535,181.518417 
	C388.299835,198.995651 388.205811,216.475754 388.274750,233.954559 
	C388.301300,240.680618 388.582886,240.761917 395.072815,239.995865 
	C398.028534,239.646988 401.051514,239.893875 404.042267,239.809998 
	C410.493683,239.629059 416.949707,239.971268 423.398346,239.950943 
	C430.938812,239.927170 438.618103,238.384323 446.928375,240.709305 
M467.898376,440.995209 
	C480.826385,441.195587 493.753906,441.515472 506.682556,441.570587 
	C530.742676,441.673157 554.803345,441.611633 578.863831,441.640778 
	C585.130615,441.648376 585.542419,441.126312 585.741150,434.923248 
	C586.267151,418.501099 584.715759,402.064606 586.350281,385.639130 
	C586.927917,379.833649 585.116516,378.176147 579.256653,378.103851 
	C567.274231,377.955963 555.288879,377.971863 543.305115,378.014221 
	C515.505249,378.112457 487.705536,378.332031 459.905792,378.326050 
	C455.812988,378.325165 454.261292,379.628052 454.297699,383.781250 
	C454.439331,399.931671 454.326233,416.084198 454.349091,432.235870 
	C454.360474,440.268982 454.400574,440.273376 462.098022,440.728729 
	C463.759918,440.827057 465.424500,440.880707 467.898376,440.995209 
M861.574890,968.973267 
	C861.378479,976.296692 861.643433,976.593018 868.859436,976.911377 
	C872.992188,977.093750 877.127930,977.213379 881.259277,977.421814 
	C896.048706,978.167786 910.844421,977.341003 925.631592,977.601379 
	C944.581055,977.934937 963.537842,977.467285 982.484314,978.352295 
	C990.340881,978.719360 992.492310,976.598694 992.552856,968.654663 
	C992.646606,956.357544 992.504517,944.054382 992.186462,931.760864 
	C992.083374,927.774841 992.703674,923.841675 992.288513,919.812195 
	C991.834839,915.408203 989.889343,913.725403 985.628967,913.763916 
	C975.010132,913.859985 964.389587,913.735962 953.770081,913.782715 
	C925.360413,913.907715 896.950928,914.162659 868.541504,914.141174 
	C863.865112,914.137634 861.779419,915.725830 861.773499,920.373596 
	C861.753235,936.325134 861.653320,952.276489 861.574890,968.973267 
M534.339111,579.413574 
	C532.341492,579.414795 530.340637,579.343445 528.346802,579.430847 
	C522.314697,579.695190 521.277771,580.627869 521.530029,586.564026 
	C521.762634,592.039917 522.404541,597.484314 522.331665,602.993896 
	C522.175293,614.811035 522.330627,626.631897 522.240662,638.450439 
	C522.217773,641.457642 522.856079,643.071838 526.411316,642.877014 
	C531.710815,642.586426 537.038574,642.824951 542.354248,642.812927 
	C562.805176,642.766663 583.257080,642.563293 603.706604,642.706116 
	C618.998901,642.812927 634.280090,643.032349 649.557068,642.041504 
	C652.287720,641.864319 653.607483,641.009949 653.399719,638.197449 
	C652.147522,621.247009 653.976868,604.312439 653.680054,587.364319 
	C653.541321,579.441406 653.659546,579.398010 645.578491,579.396729 
	C608.802795,579.390869 572.027161,579.410278 534.339111,579.413574 
M941.108948,511.464935 
	C937.624023,511.654633 934.139893,511.993164 930.654114,512.009705 
	C909.375244,512.110229 888.095703,512.222107 866.817261,512.124084 
	C862.092712,512.102295 860.166443,513.411255 859.853394,518.592224 
	C858.890625,534.525024 860.135742,550.447632 859.491394,566.366943 
	C859.177246,574.129150 860.256104,575.060059 867.917969,574.887085 
	C877.394836,574.673218 886.876404,574.164856 896.347839,574.310608 
	C926.458252,574.773865 956.567322,574.883606 986.679749,574.717163 
	C989.781128,574.700012 990.956238,573.832458 991.160095,570.473267 
	C992.220215,552.998535 991.525269,535.529419 991.385376,518.058533 
	C991.336548,511.959198 990.782043,511.380676 984.933105,511.377533 
	C970.620422,511.369781 956.307739,511.421844 941.108948,511.464935 
M376.144318,509.738617 
	C381.107025,510.379272 383.101837,507.521210 383.600037,503.189453 
	C383.864319,500.891785 383.705048,498.546997 383.769043,496.224396 
	C384.172272,481.590637 383.713928,466.967072 383.504120,452.337555 
	C383.437317,447.678711 382.418518,446.135956 377.766052,446.217773 
	C365.117462,446.440277 352.462372,446.311890 339.809906,446.295959 
	C313.006134,446.262177 286.202332,446.230865 259.398682,446.148315 
	C255.036697,446.134888 251.768967,446.333923 251.942230,452.443481 
	C252.379959,467.878448 252.048279,483.333527 252.226242,498.778198 
	C252.337860,508.464630 252.500992,508.456970 261.945007,507.966461 
	C262.940033,507.914764 263.942078,507.956024 264.939270,507.995117 
	C278.395203,508.522705 291.847076,509.355011 305.307373,509.524506 
	C328.610077,509.817902 351.917938,509.701538 376.144318,509.738617 
M506.488037,576.123962 
	C508.486084,576.065491 510.483948,575.963440 512.482178,575.955261 
	C534.802795,575.863281 557.123596,575.705322 579.443787,575.770569 
	C584.041443,575.784058 585.922913,574.582275 585.829346,569.505493 
	C585.519592,552.688965 585.724304,535.862793 585.744873,519.040344 
	C585.752380,512.884338 585.374451,512.390015 579.343750,512.379944 
	C554.030334,512.337769 528.720520,512.200195 503.408173,513.030823 
	C488.593719,513.516968 473.750732,513.189575 458.921143,513.115479 
	C455.754578,513.099670 454.116638,513.663391 454.180206,517.502380 
	C454.458679,534.313904 454.414520,551.130737 454.476715,567.945679 
	C454.505188,575.644592 454.991882,576.226074 462.657410,576.219666 
	C476.977875,576.207703 491.298279,576.096985 506.488037,576.123962 
M159.712753,978.596680 
	C165.151794,978.317688 170.591980,977.806213 176.029495,977.832886 
	C180.430176,977.854431 181.794571,975.957642 181.756485,971.774719 
	C181.626175,957.464294 181.785934,943.151550 181.750275,928.839905 
	C181.717270,915.585999 181.670120,915.355896 168.322800,915.312378 
	C130.709412,915.189575 93.095291,915.305298 55.481659,915.229858 
	C51.611664,915.222107 50.157326,916.697754 50.180893,920.543030 
	C50.289036,938.184509 50.323345,955.827759 50.170502,973.468567 
	C50.132790,977.821106 52.065639,978.895203 55.959320,978.721069 
	C64.408455,978.343384 72.873795,977.896973 81.322830,978.042114 
	C96.725769,978.306580 112.140808,977.469177 127.531578,978.535645 
	C137.988388,979.260193 148.441528,977.138550 159.712753,978.596680 
M195.050491,239.497040 
	C211.192413,239.509827 227.336029,239.398727 243.475159,239.617783 
	C247.806793,239.676559 248.844788,237.954468 248.805939,234.004150 
	C248.640396,217.178436 248.714508,200.350494 248.672195,183.523422 
	C248.654007,176.289032 248.621994,176.300232 241.386398,176.311783 
	C202.411621,176.373978 163.436844,176.434494 124.462051,176.483597 
	C118.895676,176.490601 117.484619,177.817108 117.459534,183.689224 
	C117.399788,197.683167 117.361954,211.677917 117.446259,225.671555 
	C117.526527,238.994888 117.599564,238.989868 130.945587,239.051041 
	C140.400085,239.094391 149.854507,239.154007 159.308990,239.203033 
	C170.937164,239.263351 182.565384,239.320221 195.050491,239.497040 
M248.352264,318.886261 
	C247.601898,311.299255 247.601883,311.271179 239.587463,311.274109 
	C203.428848,311.287262 167.270218,311.328400 131.111603,311.337158 
	C114.389359,311.341217 117.580170,310.215393 117.413078,324.646332 
	C117.241402,339.473572 117.330780,354.303864 117.315727,369.132843 
	C117.312897,371.919739 117.350288,374.612305 121.327377,374.603271 
	C136.763428,374.568146 152.217636,375.066803 167.630478,374.471100 
	C181.578979,373.932007 195.525848,374.049774 209.450714,374.142578 
	C220.594025,374.216858 231.727844,373.953094 242.865143,374.009491 
	C247.013443,374.030487 248.777069,372.531769 248.709274,368.105194 
	C248.462128,351.964386 248.534042,335.818726 248.352264,318.886261 
M859.913269,416.782867 
	C859.850281,422.588654 859.774719,428.394348 859.728577,434.200256 
	C859.698242,438.017242 861.215088,440.008636 865.439026,439.789215 
	C884.879150,438.779327 904.302979,440.970367 923.749451,440.214447 
	C927.231262,440.079163 930.728516,440.168457 934.212952,440.302277 
	C951.507507,440.966431 968.793152,440.933197 986.076477,439.926605 
	C989.359436,439.735413 990.848755,438.297363 990.833008,434.943665 
	C990.793030,426.461578 991.029297,417.977417 990.935120,409.496552 
	C990.831909,400.202362 991.620789,390.910980 990.856934,381.611023 
	C990.608826,378.590515 989.486450,376.967651 986.336365,376.932129 
	C982.179749,376.885223 978.024170,376.645721 973.868469,376.653992 
	C954.585876,376.692261 935.303589,376.809662 916.021057,376.855743 
	C899.385803,376.895538 882.750122,376.926086 866.115234,376.847900 
	C862.341187,376.830170 860.098450,377.871094 860.081116,382.144501 
	C860.035278,393.424561 858.824646,404.698364 859.913269,416.782867 
M821.498413,377.095245 
	C814.675537,377.188477 807.852844,377.323181 801.029663,377.367371 
	C777.402039,377.520477 753.774231,377.676361 730.146301,377.732819 
	C727.150452,377.739960 725.372070,378.414948 725.374573,381.827698 
	C725.387878,399.976868 725.350403,418.126312 725.252625,436.275238 
	C725.233765,439.775299 726.984253,441.041931 730.198059,440.961700 
	C734.188660,440.862030 738.179688,440.699066 742.170471,440.701569 
	C775.923340,440.722687 809.678162,440.506775 843.424194,441.486572 
	C845.574890,441.549042 847.762146,441.425812 849.886230,441.093903 
	C853.529175,440.524597 855.899597,438.928162 855.752136,434.549133 
	C855.484680,426.605743 855.738770,418.646301 855.596191,410.696777 
	C855.429382,401.394318 854.691406,392.084656 854.950684,382.799072 
	C855.087830,377.886383 853.246582,376.753937 848.960876,376.852264 
	C840.143127,377.054626 831.319885,377.018494 821.498413,377.095245 
M209.499298,446.062500 
	C182.212250,446.062286 154.925964,446.407288 127.640244,445.534607 
	C117.932861,445.224091 117.761993,445.595551 117.542770,455.154327 
	C117.165024,471.626129 117.006721,488.102936 116.757088,504.577667 
	C116.727730,506.515015 116.837341,508.327698 119.454247,508.465668 
	C123.749039,508.692078 128.065186,509.389069 132.330719,509.148804 
	C155.598495,507.838165 178.839432,509.363037 202.091736,509.503845 
	C215.891937,509.587372 229.694260,509.349274 243.495377,509.228180 
	C246.517654,509.201630 248.435379,508.322998 248.386368,504.575958 
	C248.253952,494.453186 248.571548,484.325378 248.538574,474.200104 
	C248.515869,467.230164 247.878998,460.249695 248.121964,453.295105 
	C248.340408,447.043030 247.820404,446.005676 241.430573,445.983429 
	C231.120193,445.947510 220.809448,446.011414 209.499298,446.062500 
M318.312225,238.872925 
	C328.421875,239.047958 338.570923,238.741241 348.627625,239.563797 
	C355.573853,240.131943 362.492096,240.578949 369.451874,240.670593 
	C383.755371,240.858948 383.755096,240.883026 383.713226,226.990875 
	C383.711243,226.324966 383.649170,225.653229 383.714355,224.994003 
	C385.038605,211.601456 383.258759,198.178146 384.160919,184.769272 
	C384.588257,178.417343 382.323395,176.236084 376.231903,176.238083 
	C337.285065,176.250778 298.338196,176.343445 259.391510,176.283905 
	C254.893738,176.277039 253.176224,177.909958 253.217636,182.451508 
	C253.346588,196.600082 253.171799,210.751358 253.128036,224.901611 
	C253.080597,240.243912 253.137222,240.241577 268.577393,239.856506 
	C284.835938,239.451004 301.097260,239.158661 318.312225,238.872925 
M794.582947,236.635544 
	C796.983765,240.268646 800.677429,238.557236 803.757568,238.598633 
	C828.341980,238.929230 852.882568,235.735977 877.498108,237.677826 
	C881.462280,237.990555 885.361511,236.744812 889.424744,237.132004 
	C899.694824,238.110687 910.008850,238.076385 920.325256,237.776703 
	C923.618469,237.681015 924.652954,236.288208 924.562317,233.163742 
	C924.051270,215.559998 925.257446,197.946594 924.215393,180.336761 
	C923.944641,175.760941 922.261902,173.951477 917.520020,174.063812 
	C903.540527,174.394989 889.551208,174.288483 875.567139,174.460693 
	C850.276001,174.772110 824.972412,173.463348 799.687744,175.120926 
	C796.331970,175.340912 794.338867,176.001099 794.355225,179.875015 
	C794.433960,198.522018 794.382263,217.169556 794.582947,236.635544 
M594.982056,777.673706 
	C610.744385,777.734070 626.507141,777.890259 642.268860,777.819275 
	C651.904846,777.775879 651.902710,777.619202 652.044861,768.257690 
	C652.049927,767.928589 652.172058,767.602600 652.191650,767.272278 
	C653.157166,750.988708 652.561035,734.690796 652.674622,718.399109 
	C652.696289,715.288086 651.271484,714.261780 648.414551,714.339661 
	C644.755066,714.439392 641.092224,714.438782 637.430786,714.438416 
	C600.809814,714.434692 564.188782,714.456604 527.567993,714.361023 
	C523.696533,714.350952 522.168945,715.737854 522.288330,719.637024 
	C522.476685,725.790405 522.306763,731.954529 522.304932,738.114075 
	C522.301575,749.600830 522.338867,761.087708 522.294128,772.574280 
	C522.282227,775.624329 522.798279,777.726318 526.672180,777.537109 
	C540.201538,776.876404 553.739563,777.580994 567.270813,777.499939 
	C576.215027,777.446228 585.152161,777.374023 594.982056,777.673706 
M418.471954,576.086426 
	C427.623810,575.972473 436.775543,575.798096 445.927643,575.776001 
	C449.293884,575.767822 450.723816,574.374023 450.713409,570.976196 
	C450.659393,553.330872 450.680695,535.685059 450.746216,518.039673 
	C450.758575,514.711609 449.422119,513.120544 446.001007,513.178589 
	C441.007324,513.263367 436.010712,513.161072 431.015411,513.166992 
	C395.881104,513.208374 360.746796,513.270813 325.612488,513.283020 
	C321.915100,513.284302 319.141388,513.668335 319.179749,518.568359 
	C319.314056,535.710083 319.277283,552.855347 319.062195,569.996277 
	C319.000763,574.892456 321.061157,576.444885 325.661713,576.261475 
	C356.267426,575.041077 386.880524,576.422058 418.471954,576.086426 
M822.577026,709.555908 
	C832.215088,709.550842 841.853210,709.547424 851.491272,709.539795 
	C854.510132,709.537415 855.767822,708.319153 855.888855,705.008057 
	C856.519470,687.755066 855.836609,670.516785 855.578857,653.275818 
	C855.487671,647.174316 854.310120,646.419373 847.967163,646.264587 
	C826.820801,645.748779 805.705811,647.112915 784.572266,647.249146 
	C766.419922,647.366150 748.265259,647.365173 730.113770,647.189514 
	C725.677063,647.146667 724.294983,648.905945 724.322754,653.109375 
	C724.432678,669.760864 724.464661,686.415466 724.238159,703.065002 
	C724.172241,707.908264 726.115356,709.609192 730.706909,709.573364 
	C743.550415,709.473206 756.395264,709.561646 769.239624,709.560913 
	C786.745483,709.559937 804.251343,709.545349 822.577026,709.555908 
M787.434143,512.178345 
	C768.775757,512.240906 750.116821,512.407593 731.459473,512.293213 
	C726.768311,512.264404 725.018311,513.711243 725.081726,518.628174 
	C725.298645,535.447021 725.253845,552.274597 724.928955,569.091431 
	C724.842834,573.547974 726.159302,574.861450 730.509644,574.843506 
	C751.130981,574.758423 771.753357,574.984863 792.375427,575.011536 
	C811.453552,575.036255 830.533630,574.789551 849.608643,575.016785 
	C854.682251,575.077271 855.813843,573.124207 855.772278,568.523621 
	C855.625305,552.246887 855.773010,535.966919 855.880005,519.688721 
	C855.930603,511.985748 855.421448,511.390564 847.824036,511.424683 
	C828.015930,511.513672 808.200562,510.977295 787.434143,512.178345 
M67.427368,440.970947 
	C75.253815,441.176910 83.079422,441.515167 90.906860,441.565002 
	C118.346039,441.739746 145.785782,441.836090 173.225449,441.913483 
	C179.986908,441.932556 180.545944,441.230408 180.614777,434.513306 
	C180.785339,417.868286 180.255905,401.210785 181.477264,384.583588 
	C181.806183,380.106018 180.264709,378.116974 175.228424,378.216522 
	C158.590164,378.545349 141.933716,378.964081 125.307343,378.824524 
	C102.020409,378.629120 78.743507,378.576019 55.459553,378.869598 
	C51.617928,378.918060 50.240353,380.069733 50.228275,384.058960 
	C50.197521,394.213959 50.560810,404.371765 49.734406,414.534851 
	C49.182293,421.324677 49.495155,428.184052 49.397255,435.011932 
	C49.338200,439.130585 51.136452,441.168030 55.450653,440.962128 
	C59.107738,440.787567 62.781101,440.953888 67.427368,440.970947 
M252.336075,762.432617 
	C252.366684,765.596191 252.562378,768.768982 252.387711,771.921204 
	C252.148972,776.229431 253.967575,778.132874 258.270813,777.706604 
	C266.713806,776.870422 275.162140,777.765442 283.609070,777.671265 
	C295.730865,777.536011 307.866547,777.162781 319.973938,777.564941 
	C339.388550,778.209961 358.768311,776.705017 378.163544,777.139526 
	C382.248810,777.231018 382.748840,775.383484 382.689117,772.022217 
	C382.391296,755.256897 382.315430,738.487610 382.037262,721.721863 
	C381.919708,714.637817 381.537781,714.337341 374.105865,714.332886 
	C335.474030,714.309692 296.842010,714.391296 258.210663,714.252319 
	C253.471878,714.235291 252.167511,716.127747 252.222290,720.488220 
	C252.393845,734.141052 252.315933,747.796997 252.336075,762.432617 
M180.700150,527.512695 
	C180.713684,524.514648 180.407867,521.472290 180.815643,518.528870 
	C181.426025,514.123047 179.548523,513.190491 175.532196,513.207947 
	C157.379883,513.287109 139.226501,513.057068 121.073364,513.025269 
	C99.093338,512.986755 77.113113,513.057312 55.133053,513.025146 
	C51.401402,513.019653 49.283676,514.038940 49.263004,518.410950 
	C49.182724,535.391357 49.673100,552.381165 48.562630,569.352234 
	C48.305290,573.284973 49.645046,575.736023 54.480873,575.964111 
	C66.766655,576.543640 79.084312,576.387878 91.330887,576.257385 
	C106.801353,576.092529 122.278694,576.062378 137.752304,575.966492 
	C149.878677,575.891357 162.006531,576.032898 174.132507,575.931458 
	C176.761078,575.909485 179.891068,576.544556 179.914978,571.879700 
	C179.989120,557.417786 180.410416,542.957642 180.700150,527.512695 
M654.226624,320.884125 
	C655.145264,311.402039 655.048828,311.278503 645.708618,311.263916 
	C636.379456,311.249359 627.050232,311.262451 617.721069,311.273102 
	C588.067566,311.307037 558.414062,311.376068 528.760681,311.344727 
	C524.933655,311.340668 522.313782,311.922882 522.347778,316.687225 
	C522.472778,334.176636 522.413574,351.667694 522.359314,369.157898 
	C522.348755,372.553040 523.866211,374.020233 527.218323,373.910950 
	C531.378296,373.775299 535.542297,373.730469 539.704834,373.711517 
	C575.294006,373.549500 610.883179,373.417480 646.472229,373.236664 
	C652.980347,373.203583 653.944275,372.267059 654.000122,365.665649 
	C654.123657,351.040314 654.120789,336.413940 654.226624,320.884125 
M184.264130,703.259155 
	C183.514130,708.299683 186.005844,710.287903 190.753220,710.143677 
	C193.402054,710.063171 196.051254,709.879333 198.699097,709.899597 
	C220.428406,710.066406 242.157150,710.313599 263.886627,710.448364 
	C279.660095,710.546143 295.434448,710.532593 311.208313,710.509277 
	C313.616669,710.505676 315.039154,709.660034 315.203552,706.663635 
	C316.188293,688.720825 315.476715,670.807251 314.688049,652.889160 
	C314.504669,648.723022 312.375885,647.306274 308.197205,647.323120 
	C273.710815,647.462036 239.223709,647.411072 204.736801,647.435730 
	C199.414886,647.439575 194.093094,647.546875 188.771103,647.583923 
	C185.895477,647.603882 184.537109,648.999512 184.525040,651.892456 
	C184.454941,668.700562 184.348434,685.508545 184.264130,703.259155 
M129.530914,910.705505 
	C167.505569,910.754700 205.480331,910.775208 243.454758,910.896729 
	C247.302673,910.909119 248.887024,909.438538 248.805603,905.585205 
	C248.430389,887.825378 248.128174,870.063599 247.897415,852.301331 
	C247.849274,848.594788 246.121658,847.090576 242.611893,847.520874 
	C232.986572,848.700928 223.334930,847.634155 213.696030,847.807251 
	C183.395981,848.351501 153.083527,848.246826 122.775780,848.266846 
	C118.755432,848.269470 117.162544,849.520325 117.223129,853.769470 
	C117.441666,869.093811 117.321098,884.422852 117.346214,899.750122 
	C117.364540,910.932434 117.376884,910.932434 129.530914,910.705505 
M497.375488,374.508545 
	C502.869751,374.527466 508.352020,374.507751 513.843811,374.022766 
	C517.369568,373.711395 518.646790,372.474091 518.620544,368.748779 
	C518.499817,351.648254 518.585754,334.543762 518.852478,317.444672 
	C518.922791,312.938202 517.466797,311.249481 512.850952,311.267212 
	C473.370544,311.418884 433.889496,311.441315 394.408813,311.373199 
	C389.937897,311.365479 388.191376,312.888214 388.234039,317.488251 
	C388.391602,334.478333 388.413879,351.473816 388.126373,368.461182 
	C388.046906,373.157349 389.811798,374.557983 394.150360,374.601776 
	C407.063324,374.732025 419.979523,374.431854 432.885712,374.385895 
	C454.157318,374.310120 475.426270,374.463257 497.375488,374.508545 
M454.291595,686.499878 
	C454.296112,692.161316 454.513672,697.833191 454.238342,703.481018 
	C454.014587,708.070801 455.292664,710.084412 460.372681,709.977356 
	C474.170349,709.686646 487.978790,709.918518 501.782959,709.920471 
	C527.554504,709.924072 553.326416,709.843018 579.097229,709.974243 
	C583.320251,709.995789 585.229431,708.593323 585.248474,704.295410 
	C585.322205,687.675842 585.511719,671.056763 585.669556,654.437561 
	C585.730896,647.984680 585.046387,647.234436 578.643188,647.241211 
	C566.822083,647.253723 555.000916,647.346252 543.179810,647.341858 
	C516.209717,647.331726 489.239624,647.262573 462.269531,647.263306 
	C454.536102,647.263489 454.360229,647.492676 454.337921,655.025818 
	C454.307861,665.183777 454.304474,675.341858 454.291595,686.499878 
M689.502563,781.247864 
	C658.209595,781.308655 626.916382,781.449158 595.623962,781.345825 
	C590.838928,781.330017 589.160156,782.867371 589.220398,787.683533 
	C589.426575,804.159851 589.440796,820.642822 589.193481,837.118164 
	C589.119324,842.064087 590.649414,843.882568 595.719238,843.838318 
	C618.662964,843.637939 641.610779,843.581543 664.554321,843.785583 
	C680.965698,843.931519 697.360168,844.974976 713.789307,843.835815 
	C718.376709,843.517883 720.032043,841.917542 719.741760,837.478027 
	C719.514648,834.004639 719.489990,830.472351 719.845886,827.014709 
	C721.168152,814.169678 719.810547,801.287720 720.577759,788.432129 
	C720.993774,781.462097 720.359497,781.064697 713.468262,781.086487 
	C705.813049,781.110779 698.157898,781.188965 689.502563,781.247864 
M219.274673,576.344360 
	C229.091888,577.068787 238.893143,575.776001 248.687119,575.994263 
	C268.911438,576.444885 289.129089,576.449646 309.350281,576.077637 
	C315.604218,575.962646 315.470093,575.746033 315.251465,569.412842 
	C314.950439,560.690369 315.436279,551.936401 315.011078,543.223877 
	C314.612396,535.054138 315.403839,526.950562 315.455841,518.815552 
	C315.479706,515.083801 313.908081,512.872681 309.685272,513.178833 
	C306.537201,513.407104 303.357697,513.189209 300.192169,513.190796 
	C264.371002,513.208801 228.549850,513.217224 192.728729,513.263367 
	C185.480972,513.272705 185.164734,513.590454 185.031021,520.891907 
	C184.738297,536.874023 184.483398,552.856995 184.279861,568.840515 
	C184.195465,575.468140 184.503693,576.034973 191.210831,576.277222 
	C200.310333,576.605774 209.428741,576.410828 219.274673,576.344360 
M585.336731,796.104004 
	C585.241211,793.283386 584.738708,790.403809 585.136475,787.654602 
	C585.921509,782.230286 583.407898,781.222107 578.639709,781.323486 
	C566.824036,781.574829 554.999146,781.389099 543.177917,781.387634 
	C516.039734,781.384338 488.901489,781.380859 461.763275,781.389282 
	C453.561890,781.391846 453.590515,781.408752 453.863129,789.869324 
	C453.980988,793.527161 453.987640,797.189636 453.985413,800.850037 
	C453.978180,812.836670 454.020416,824.824158 453.882111,836.809448 
	C453.826080,841.667236 455.351868,843.902283 460.783997,843.944336 
	C475.375549,844.057129 489.995941,844.370789 504.560486,844.219849 
	C529.003357,843.966553 553.445068,843.789795 577.889343,843.779907 
	C584.493042,843.777222 585.123535,843.515808 585.264526,836.755859 
	C585.541809,823.459778 585.334900,810.153625 585.336731,796.104004 
M440.499908,714.314148 
	C424.851532,714.328125 409.201202,714.485962 393.555969,714.270813 
	C388.695770,714.203979 387.049805,715.912231 387.327057,720.687622 
	C387.673706,726.658081 387.445221,732.662415 387.452637,738.652100 
	C387.467041,750.303772 387.493317,761.955444 387.465790,773.606995 
	C387.459869,776.112488 387.923737,777.704102 391.066315,777.581116 
	C397.970978,777.310974 404.887848,777.317383 411.800079,777.282837 
	C424.894257,777.217468 437.988647,777.168457 451.082916,777.176697 
	C464.008179,777.184875 476.933441,777.318176 489.858643,777.309204 
	C498.877960,777.302917 507.926331,778.325012 516.796570,776.760559 
	C517.717590,775.845764 517.530029,774.800842 517.533264,773.824890 
	C517.592468,755.698608 517.581848,737.571960 517.726624,719.446411 
	C517.761108,715.137695 515.666992,714.241211 511.813385,714.261169 
	C488.376129,714.382935 464.937866,714.316895 440.499908,714.314148 
M793.267578,630.459778 
	C793.264160,631.459534 793.272339,632.459412 793.255432,633.458984 
	C793.116333,641.686096 793.408508,641.291199 801.435730,641.804443 
	C813.561829,642.579651 825.643433,642.202820 837.735535,641.845032 
	C864.659363,641.048584 891.573181,643.211853 918.502319,641.987427 
	C922.176147,641.820435 923.665344,640.691650 923.693970,637.147339 
	C923.728821,632.822388 924.014587,628.498901 924.023987,624.174438 
	C924.051636,611.532349 923.790955,598.885742 924.056030,586.249573 
	C924.196228,579.565796 924.162537,579.042114 917.508240,579.056580 
	C878.203735,579.142090 838.899170,579.252563 799.594666,579.372742 
	C793.590698,579.391113 793.485046,579.832275 793.169434,586.054199 
	C792.434937,600.535400 793.404907,615.000610 793.267578,630.459778 
M102.499466,171.935165 
	C126.637169,171.910950 150.774887,171.896118 174.912552,171.855835 
	C180.841782,171.845932 181.690598,171.114197 181.620346,165.302322 
	C181.415543,148.356796 181.035217,131.413330 180.855377,114.467659 
	C180.818405,110.983658 179.750244,109.272896 175.971146,109.283012 
	C135.834778,109.390419 95.698166,109.427666 55.561653,109.410637 
	C51.536236,109.408928 50.056416,110.902977 50.112720,115.068306 
	C50.337753,131.714874 50.240704,148.365692 50.278763,165.014908 
	C50.293346,171.394272 50.799442,171.839630 57.039894,171.846130 
	C71.859932,171.861542 86.679909,171.924164 102.499466,171.935165 
M518.662964,618.500305 
	C518.514526,607.687683 518.795532,596.879089 518.181763,586.057678 
	C517.901550,581.118408 515.719360,580.339172 511.626190,580.423828 
	C501.002625,580.643555 490.374146,580.717102 479.747925,580.698975 
	C450.650574,580.649414 421.553375,580.518799 392.456085,580.431946 
	C389.393127,580.422791 387.354919,581.464233 387.354919,585.044678 
	C387.354828,603.187195 387.293762,621.329834 387.203918,639.472168 
	C387.191345,642.011230 388.202332,643.006226 390.783813,642.988831 
	C402.085968,642.912537 413.389435,643.029907 424.691711,642.963196 
	C441.135773,642.866150 457.579041,642.592834 474.023071,642.542603 
	C487.486328,642.501465 500.952148,642.575439 514.412598,642.825989 
	C517.810486,642.889282 518.781921,641.626831 518.712646,638.475647 
	C518.573853,632.153320 518.674805,625.825684 518.662964,618.500305 
M887.500061,507.901031 
	C897.820496,507.910248 908.141113,507.896301 918.461365,507.941650 
	C921.903076,507.956787 923.586731,506.572571 923.711975,502.912567 
	C924.327026,484.943909 923.762817,466.978210 923.788452,449.011719 
	C923.793335,445.584869 922.348755,444.387817 918.917725,444.428223 
	C897.131897,444.684723 875.344299,444.783752 853.557251,444.931152 
	C835.255859,445.054962 816.954468,445.188812 798.652954,445.280151 
	C795.715515,445.294800 793.318665,445.647461 793.331299,449.473846 
	C793.390442,467.463959 793.400635,485.454376 793.374329,503.444580 
	C793.369385,506.823975 795.151794,507.763062 798.164368,507.540283 
	C805.791260,506.976196 813.404541,507.361206 821.044006,507.531555 
	C842.854431,508.017883 864.680237,507.814117 887.500061,507.901031 
M465.049500,306.706573 
	C484.990356,306.689056 504.931244,306.688263 524.872070,306.646881 
	C534.648865,306.626617 544.425659,306.474579 554.202332,306.485779 
	C563.334900,306.496277 572.468689,306.575867 581.599060,306.765198 
	C585.156799,306.838959 586.880920,305.428711 586.827087,301.808899 
	C586.777588,298.483429 586.904724,295.155731 586.907410,291.828979 
	C586.918457,278.015930 586.840698,264.202271 586.951599,250.390121 
	C586.988647,245.767303 585.262146,244.008896 580.434021,244.023529 
	C569.618530,244.056320 558.761658,243.667587 547.980774,243.830811 
	C518.864014,244.271667 489.753510,244.779312 460.633972,244.400558 
	C456.999878,244.353287 455.094940,245.369476 455.119385,249.483139 
	C455.224335,267.129242 455.120087,284.776733 455.060669,302.423615 
	C455.050995,305.303009 456.310364,306.796692 459.251801,306.739166 
	C460.916107,306.706604 462.580627,306.685577 465.049500,306.706573 
M846.393005,779.391602 
	C821.413635,779.917969 796.435608,780.525085 771.454346,780.938782 
	C757.628845,781.167725 743.797852,781.094299 729.969360,781.107727 
	C726.846863,781.110779 724.406189,781.474792 724.310974,785.554077 
	C723.900330,803.155884 724.875305,820.780273 723.447876,838.364685 
	C723.145569,842.090027 724.627747,843.769470 728.638977,843.736084 
	C752.043213,843.541260 775.449402,843.422363 798.853943,843.519836 
	C806.307800,843.550903 813.645447,842.224365 821.158325,842.634094 
	C831.114441,843.177002 841.125916,842.710815 851.113586,842.663940 
	C853.277771,842.653748 854.884949,841.643311 854.527100,839.375061 
	C853.814697,834.858765 854.757446,830.411194 854.717285,825.924866 
	C854.603943,813.275940 854.568848,800.612305 855.071838,787.977112 
	C855.387634,780.044861 855.328918,779.482666 846.393005,779.391602 
M691.025635,642.254395 
	C699.814941,642.785950 708.577209,641.909241 717.347290,641.781006 
	C739.303650,641.459961 761.267883,641.623413 783.228516,641.712036 
	C787.224060,641.728149 788.732178,640.418335 788.671387,636.172546 
	C788.440796,620.064209 788.542786,603.950256 788.608765,587.838806 
	C788.641541,579.844482 788.303223,579.385315 780.211609,579.399597 
	C750.753967,579.451660 721.295532,579.421265 691.839233,579.655640 
	C682.853455,579.727112 673.881470,579.960266 664.893555,579.558838 
	C658.372131,579.267517 657.306580,580.470337 657.291443,586.892029 
	C657.252930,603.209595 657.320374,619.528015 657.153320,635.844116 
	C657.110352,640.043823 658.530273,641.911255 662.890137,641.910461 
	C672.020020,641.908752 681.149841,642.222046 691.025635,642.254395 
M209.564789,643.465942 
	C220.444153,643.329773 231.322800,641.820068 242.203812,643.666077 
	C246.393784,644.376892 247.730835,642.067566 247.777390,638.133484 
	C247.966003,622.189941 248.309601,606.248169 248.622559,590.306274 
	C248.803848,581.071411 248.118546,580.158875 238.971481,580.367188 
	C220.194061,580.794678 201.428253,580.890015 182.642868,580.505798 
	C162.335938,580.090393 142.014221,580.415283 121.699081,580.364563 
	C118.535515,580.356689 117.320045,581.654907 117.319321,584.879883 
	C117.315414,602.368042 117.209831,619.856873 116.991905,637.343689 
	C116.948273,640.844482 118.143799,642.339417 121.727837,642.754639 
	C135.809586,644.386047 149.898132,642.639221 163.985687,643.113647 
	C178.909637,643.616150 193.857468,643.410583 209.564789,643.465942 
M295.067993,643.039246 
	C305.879181,643.035461 316.708252,643.331177 327.495148,643.170715 
	C343.430023,642.933655 359.338928,644.591248 375.297363,643.230408 
	C382.343445,642.629578 383.541656,642.307373 383.473083,635.137085 
	C383.318054,618.927979 382.883148,602.717346 383.043518,586.512085 
	C383.092041,581.607971 381.634308,580.208069 376.895325,580.286682 
	C351.818512,580.703125 326.737885,580.910950 301.657898,581.103394 
	C287.204376,581.214355 272.748108,581.281677 258.296204,581.107239 
	C253.753876,581.052429 252.151855,582.629028 252.195999,587.210022 
	C252.341995,602.362366 252.409531,617.525757 251.977692,632.669800 
	C251.699890,642.411865 251.237198,642.667297 262.826538,643.733704 
	C264.476227,643.885559 266.155609,643.738037 267.820465,643.696777 
	C276.628265,643.478577 285.435760,643.250000 295.067993,643.039246 
M837.500122,847.311340 
	C824.025513,847.382446 810.550964,847.487671 797.076294,847.500305 
	C793.799316,847.503418 792.290649,848.649658 792.312927,852.200378 
	C792.421570,869.515747 792.408813,886.832825 792.273376,904.148010 
	C792.242065,908.152527 793.579712,909.621216 797.759949,909.784668 
	C813.841858,910.413574 829.916016,910.639465 846.000244,910.122192 
	C869.944641,909.352051 893.892578,910.794006 917.843750,909.993713 
	C921.832275,909.860474 923.017456,908.885315 922.828186,904.935303 
	C922.008484,887.831970 922.556702,870.720459 923.019287,853.616516 
	C923.168701,848.091187 922.586365,847.290955 916.914246,847.291016 
	C890.776306,847.291382 864.638306,847.305847 837.500122,847.311340 
M648.500000,647.390564 
	C630.676392,647.425293 612.852722,647.493896 595.029236,647.465210 
	C591.584290,647.459717 589.257751,648.056396 589.283997,652.328979 
	C589.394775,670.318115 589.360840,688.308533 589.276672,706.298035 
	C589.263306,709.151428 590.418213,710.188293 593.139160,710.064087 
	C597.286743,709.874634 601.439758,709.708496 605.590698,709.704346 
	C641.385803,709.668274 677.180969,709.695496 712.975952,709.639099 
	C719.506165,709.628845 719.717651,709.264343 719.642395,702.863037 
	C719.609131,700.031799 719.587708,697.198914 719.645874,694.368530 
	C719.938599,680.119385 720.284180,665.871277 720.546265,651.621643 
	C720.590759,649.204712 721.143982,646.660522 716.942993,646.728882 
	C694.464478,647.095093 671.981506,647.194214 648.500000,647.390564 
M247.126587,775.357849 
	C247.967743,756.925110 247.495163,738.480774 247.659821,720.042053 
	C247.702209,715.295044 245.359818,714.267822 241.119461,714.306335 
	C222.985870,714.471069 204.850067,714.392334 186.715073,714.403503 
	C165.437424,714.416565 144.158844,714.539917 122.882828,714.359924 
	C118.193214,714.320190 117.202736,716.480591 117.297836,720.451233 
	C117.696007,737.075928 118.166412,753.702209 118.230522,770.329468 
	C118.249710,775.307922 119.891144,777.114380 124.856995,777.124023 
	C143.136032,777.159485 161.424103,777.173523 179.690826,777.347473 
	C200.647964,777.546997 221.609833,777.400024 242.566422,777.715515 
	C244.263992,777.741028 245.948227,777.840637 247.126587,775.357849 
M104.357918,709.967712 
	C115.502808,709.922546 126.653061,710.077637 137.791168,709.779419 
	C150.536957,709.438354 163.274673,711.278076 176.043716,709.535950 
	C179.749374,709.030457 180.438446,707.253784 180.368713,704.332886 
	C179.976822,687.920654 179.438766,671.510010 180.581696,655.103394 
	C181.006332,649.007812 179.490692,647.425293 173.255905,647.421143 
	C162.937302,647.414246 152.618637,647.487732 142.300034,647.480347 
	C112.825417,647.459290 83.350777,647.431580 53.876270,647.356934 
	C50.351933,647.348022 49.175060,648.974792 49.456402,652.337036 
	C49.747093,655.810974 50.002911,659.325745 49.805309,662.795959 
	C48.990303,677.108887 49.545441,691.427246 49.395969,705.741516 
	C49.367508,708.467102 50.577942,709.867310 53.198872,709.882446 
	C62.336876,709.935181 71.480728,710.328186 80.599197,710.327637 
	C88.210922,710.327209 95.850410,709.862915 104.357918,709.967712 
M342.327209,378.471283 
	C336.333801,378.491669 330.339478,378.457397 324.347321,378.555145 
	C321.290375,378.605011 319.315857,379.875885 319.320099,383.372589 
	C319.341675,401.192627 319.313446,419.012878 319.248718,436.832825 
	C319.236420,440.217255 320.776703,441.851990 324.120087,441.548553 
	C336.097534,440.461487 348.084015,442.231628 360.028198,441.571075 
	C377.480591,440.605865 394.910889,442.560608 412.369720,441.303772 
	C423.272675,440.518890 434.253784,440.652985 445.198303,440.704651 
	C448.952728,440.722351 449.759735,439.102112 449.639862,435.899841 
	C449.403900,429.596069 449.075867,423.212677 449.396393,416.991791 
	C449.970856,405.841766 448.694305,394.711578 449.709808,383.595703 
	C450.056671,379.798828 448.486359,378.353546 444.463318,378.394531 
	C426.337433,378.579224 408.208405,378.443970 390.080536,378.453430 
	C374.428955,378.461609 358.777344,378.509430 342.327209,378.471283 
M299.010254,978.448242 
	C302.493164,978.242310 305.973724,977.974854 309.459442,977.843445 
	C316.241913,977.587769 316.609161,977.373718 316.635162,970.855469 
	C316.702087,954.093506 316.599365,937.330811 316.707916,920.569275 
	C316.732117,916.830994 315.524261,915.042664 311.549164,915.104126 
	C301.743256,915.255920 291.933838,915.194824 282.125824,915.194092 
	C252.167236,915.191895 222.208267,915.249756 192.250458,915.092773 
	C187.603546,915.068359 186.177277,916.806213 186.221863,921.267822 
	C186.386490,937.743958 186.244827,954.222839 186.284866,970.700562 
	C186.301559,977.571045 186.376541,977.691772 193.285370,977.746216 
	C228.277481,978.021973 263.270111,978.229553 299.010254,978.448242 
M842.499756,713.354126 
	C827.538269,713.311096 812.575134,713.111389 797.634033,714.228149 
	C795.171814,714.412170 793.019165,714.355896 792.992188,717.849915 
	C792.857544,735.313904 792.629456,752.777710 792.320801,770.239502 
	C792.253174,774.069214 793.860168,775.614380 797.631165,775.725281 
	C820.739563,776.405151 843.852539,775.507874 866.970520,776.229919 
	C884.040100,776.763000 901.149109,775.911133 918.236389,776.085266 
	C922.528259,776.129028 923.972290,774.966370 923.660889,770.813538 
	C922.395447,753.936584 923.262817,737.015625 922.747681,720.120911 
	C922.548950,713.603821 922.411377,713.380493 915.907043,713.374939 
	C891.771301,713.354492 867.635620,713.358215 842.499756,713.354126 
M184.441635,395.800903 
	C184.388306,408.785858 184.310730,421.770782 184.291763,434.755768 
	C184.282104,441.369629 184.508377,441.620026 190.912201,441.674591 
	C198.899323,441.742615 206.887787,441.647186 214.875076,441.704010 
	C241.310898,441.891998 267.746490,442.110565 294.182037,442.332794 
	C299.006348,442.373352 303.848907,442.771637 308.646729,442.454987 
	C311.364136,442.275604 315.110382,442.447327 315.143524,438.007538 
	C315.201508,430.241150 315.041382,422.477234 315.130341,414.706146 
	C315.246246,404.582520 314.140076,394.447418 314.170837,384.319122 
	C314.184113,379.943329 312.580658,378.671631 308.709259,378.828705 
	C307.051361,378.896027 305.385071,378.719330 303.723175,378.731598 
	C287.423645,378.851837 271.124481,379.043579 254.824783,379.107056 
	C233.515396,379.190094 212.205460,379.226562 190.896164,379.158905 
	C186.718719,379.145630 184.736084,380.658417 184.867050,385.003601 
	C184.966995,388.318939 184.598389,391.648438 184.441635,395.800903 
M449.756958,836.090210 
	C449.752594,820.105896 449.775818,804.121521 449.730469,788.137329 
	C449.711975,781.618103 449.473663,781.464661 442.923126,781.403931 
	C403.467682,781.037903 364.020966,781.749695 324.571838,782.258667 
	C320.717987,782.308350 319.131012,783.571960 319.182526,787.452026 
	C319.284210,795.109314 319.216156,802.771301 319.076111,810.428711 
	C318.902740,819.909424 318.584229,829.387451 318.330048,838.866638 
	C318.261017,841.441162 318.779907,843.570557 321.969269,843.704102 
	C325.948944,843.870789 329.929230,844.223022 333.907196,844.196167 
	C350.181641,844.086243 366.456055,843.673401 382.729095,843.734314 
	C398.684082,843.794006 414.639191,844.567871 430.590546,844.464172 
	C436.981995,844.422729 443.805695,846.060303 449.762146,842.000977 
	C449.762146,840.281067 449.762146,838.619568 449.756958,836.090210 
M772.194519,775.883606 
	C775.853455,776.460388 779.496277,775.971863 783.149048,775.768799 
	C785.309448,775.648682 786.752686,774.932190 786.537598,772.513611 
	C786.224731,768.995972 787.456116,765.612976 787.506897,762.184509 
	C787.718811,747.871643 787.592407,733.554199 787.721802,719.239563 
	C787.754883,715.577637 786.263428,714.252930 782.644409,714.259521 
	C742.670715,714.332275 702.696838,714.346313 662.723206,714.259338 
	C658.608154,714.250366 657.103760,715.805725 657.142090,719.861267 
	C657.214478,727.514160 656.907898,735.170105 656.810120,742.825378 
	C656.684814,752.631714 656.638245,762.439087 656.493591,772.245056 
	C656.457764,774.675049 656.846252,776.582031 659.805664,776.760071 
	C663.786438,776.999573 667.797852,777.762024 671.737244,777.479065 
	C689.657532,776.192017 707.596924,777.378662 725.523499,776.775818 
	C740.788452,776.262573 756.097534,777.565979 772.194519,775.883606 
M904.500244,107.328087 
	C892.344910,107.360176 880.188721,107.321198 868.034485,107.454643 
	C862.046936,107.520386 861.262512,108.579712 861.276489,114.579613 
	C861.314941,131.063995 861.499268,147.553177 861.144287,164.030090 
	C861.040771,168.836899 862.463196,169.926056 867.000244,169.878113 
	C886.798889,169.668900 906.601196,169.535385 926.396729,169.384857 
	C946.978394,169.228348 967.578308,169.627136 988.174805,169.467133 
	C991.991882,169.437454 992.624939,168.040619 992.626953,164.784164 
	C992.637573,147.968689 992.758057,131.152756 992.943909,114.338142 
	C993.014343,107.964211 992.721375,107.362404 986.347168,107.480995 
	C959.396179,107.982452 932.447754,108.166748 904.500244,107.328087 
M456.447357,116.251404 
	C456.412018,132.397507 456.377838,148.543594 456.340820,164.689697 
	C456.325256,171.488068 456.806793,171.810562 463.825745,171.748505 
	C476.120300,171.639816 488.416473,171.718063 500.711975,171.708954 
	C527.505371,171.689117 554.298767,171.631775 581.092041,171.673309 
	C585.307495,171.679840 586.872192,170.096191 586.842285,165.704254 
	C586.727356,148.804642 586.650879,131.894241 587.654114,115.012947 
	C587.915405,110.615608 586.202087,109.140610 581.882935,109.224503 
	C570.567932,109.444237 559.246460,109.310287 547.927612,109.354012 
	C520.300415,109.460724 492.672821,109.531746 465.046722,109.773041 
	C461.254456,109.806152 456.009735,108.538406 456.447357,116.251404 
M664.798218,512.934937 
	C650.007874,512.012817 635.220947,513.270020 620.431274,513.005554 
	C612.778870,512.868774 605.124023,512.841064 597.473450,512.642822 
	C591.569031,512.489807 589.737061,513.580200 589.758850,517.794189 
	C589.849854,535.426880 590.013184,553.059265 590.075623,570.692078 
	C590.086670,573.835693 590.714172,575.506531 594.558960,575.469482 
	C614.500732,575.276855 634.446106,575.291626 654.389038,575.417969 
	C674.844788,575.547485 695.298157,576.543030 715.749573,574.935547 
	C719.432800,574.646057 720.592224,573.402283 720.579956,569.790833 
	C720.520386,552.305176 720.639709,534.818481 720.793152,517.332947 
	C720.819641,514.307129 720.134399,512.959290 716.626953,512.842834 
	C699.656433,512.279053 682.697205,513.008667 664.798218,512.934937 
M639.073853,306.524139 
	C654.018250,305.243317 668.954468,306.595459 683.894775,306.651184 
	C695.022278,306.692719 706.150146,306.630035 717.277893,306.595642 
	C720.970520,306.584229 722.129272,304.481628 721.984314,301.063385 
	C721.268860,284.199005 721.186890,267.330841 721.703552,250.456238 
	C721.889465,244.383331 720.890076,243.274521 714.893738,243.407471 
	C701.081970,243.713821 687.271057,243.505249 673.451355,243.872040 
	C648.348694,244.538315 623.218445,244.163879 598.099670,244.217468 
	C591.598389,244.231339 591.216736,244.461014 591.181030,250.905685 
	C591.089722,267.393768 591.097595,283.882568 591.127869,300.370972 
	C591.138611,306.237488 591.726379,306.770386 597.906189,306.753998 
	C611.375977,306.718292 624.845520,306.618835 639.073853,306.524139 
M881.541382,780.425110 
	C878.710815,780.428711 875.876404,780.336304 873.050415,780.452271 
	C860.178894,780.980286 859.977051,780.996521 859.669250,793.727600 
	C859.315247,808.370483 859.375061,823.023315 859.235352,837.671631 
	C859.209045,840.427490 859.688721,842.453796 863.142334,842.824646 
	C874.560303,844.050781 886.020142,843.096802 897.408997,843.012146 
	C917.184204,842.865234 936.947266,843.256042 956.715210,843.294373 
	C965.516663,843.311401 974.332214,843.889771 983.110107,843.503601 
	C985.756958,843.387268 990.540344,843.902161 990.605408,839.129700 
	C990.845459,821.520935 990.772705,803.910828 990.155457,786.302612 
	C990.005493,782.025085 987.919556,780.775818 984.251099,780.782227 
	C978.434265,780.792358 972.613953,780.721313 966.801086,780.889771 
	C938.704285,781.703796 910.624023,779.927246 881.541382,780.425110 
M732.632324,306.111420 
	C733.794250,306.054382 734.968262,305.859619 736.116211,305.961029 
	C753.215271,307.471802 770.304077,305.837982 787.394470,305.900330 
	C797.201538,305.936096 806.959778,304.346375 816.716492,304.944672 
	C828.369385,305.659302 839.963867,303.985352 851.590332,304.742737 
	C854.503723,304.932495 856.032349,304.069519 856.036011,300.495850 
	C856.053894,283.066589 856.282959,265.634766 856.708923,248.210495 
	C856.823608,243.520233 855.074463,242.118561 850.580994,242.231842 
	C834.619080,242.634201 818.650757,242.830505 802.683777,242.971497 
	C779.326904,243.177719 755.969055,243.280441 732.611511,243.396683 
	C729.035400,243.414490 726.140442,243.525894 726.198975,248.583115 
	C726.399170,265.889099 726.326111,283.200073 726.160156,300.507233 
	C726.119812,304.713196 727.926941,306.264038 732.632324,306.111420 
M346.764160,374.198090 
	C357.218506,373.674438 367.669098,374.733002 378.147369,374.079834 
	C382.729126,373.794189 383.716614,372.045441 383.693756,367.958191 
	C383.603333,351.797699 383.695312,335.635162 383.850342,319.474670 
	C383.924255,311.769165 383.744995,311.518341 376.315430,311.412659 
	C336.852142,310.851379 297.391815,313.287354 257.928619,311.516602 
	C254.525757,311.363892 253.203369,312.846710 253.207504,316.281189 
	C253.228134,333.441833 253.209579,350.604523 252.938934,367.762268 
	C252.863678,372.532715 254.859634,374.242584 259.340820,374.539490 
	C265.112732,374.921936 270.849365,374.277618 276.624084,374.395477 
	C293.566437,374.741241 310.526031,374.195923 327.479401,374.069885 
	C333.619751,374.024261 339.761597,374.177582 346.764160,374.198090 
M788.813843,332.493622 
	C788.837097,326.999359 788.717957,321.499603 788.930908,316.012695 
	C789.086548,312.001343 787.745361,310.518280 783.483276,310.582703 
	C762.849487,310.894653 742.210876,310.894653 721.573914,310.992523 
	C702.423828,311.083344 683.273682,311.163269 664.123535,311.234619 
	C661.115906,311.245819 658.338745,311.370819 658.319824,315.527008 
	C658.239929,333.009003 658.111206,350.490875 657.971375,367.972565 
	C657.939270,371.986542 659.721863,373.303986 663.815735,373.391113 
	C673.283875,373.592621 682.745483,372.945862 692.185242,373.191254 
	C722.776489,373.986481 753.368347,373.328217 783.957397,373.649841 
	C787.652100,373.688690 789.252991,372.485596 789.128296,368.367950 
	C788.776306,356.749359 788.890564,345.116638 788.813843,332.493622 
M387.405579,869.500549 
	C387.374176,881.150879 387.487305,892.804199 387.240082,904.449951 
	C387.141449,909.096497 388.541046,910.994324 393.494171,910.946106 
	C419.097656,910.696350 444.703949,910.719055 470.309296,910.672729 
	C483.790253,910.648315 497.272308,910.584106 510.751587,910.738220 
	C514.772705,910.784180 516.880615,909.854919 516.980530,905.247925 
	C517.066772,901.269653 517.076721,897.292236 517.110779,893.312256 
	C517.220093,880.529053 517.519897,867.746582 517.519714,854.963806 
	C517.519653,848.501587 516.985413,848.231079 510.669708,848.241089 
	C494.778198,848.266235 478.886627,848.258667 462.995087,848.260315 
	C439.860901,848.262695 416.725922,848.361023 393.593140,848.180481 
	C388.815643,848.143188 386.924316,849.687805 387.268585,854.526123 
	C387.598602,859.163635 387.372101,863.840698 387.405579,869.500549 
M893.004761,372.676910 
	C901.486389,372.643646 909.971252,372.457275 918.448242,372.640198 
	C922.844604,372.735016 924.611450,371.544708 924.478638,366.669952 
	C924.021484,349.889130 923.709167,333.086639 924.658813,316.312714 
	C924.919128,311.714874 923.498535,310.028839 918.844360,310.121124 
	C906.857483,310.358856 894.863403,310.219940 882.872437,310.277283 
	C854.745789,310.411743 826.619324,310.632843 798.492615,310.655334 
	C794.523315,310.658508 794.219055,312.825439 794.210144,315.749298 
	C794.178345,326.241486 794.155823,336.734009 794.047180,347.225555 
	C793.974915,354.208038 793.688965,361.188629 793.644653,368.170990 
	C793.624023,371.426910 794.768982,373.400330 798.763855,372.961792 
	C803.707031,372.419128 808.733459,372.214142 813.703247,372.404358 
	C839.833435,373.404297 865.966614,372.257782 893.004761,372.676910 
M124.333656,104.921310 
	C141.973648,105.076797 159.613312,105.023155 177.253387,105.003334 
	C198.729309,104.979202 220.201996,105.445541 241.681030,104.797569 
	C246.130066,104.663361 247.982864,103.298874 247.964157,98.735275 
	C247.895432,81.965706 247.735977,65.184479 248.302307,48.431019 
	C248.493927,42.762409 246.352737,42.185795 241.727188,42.219776 
	C202.242722,42.509880 162.757034,42.672447 123.271538,42.715416 
	C119.562195,42.719452 118.214088,43.836628 118.237396,47.530491 
	C118.346733,64.858025 118.350006,82.186920 118.251282,99.514526 
	C118.229736,103.296532 119.564934,105.215561 124.333656,104.921310 
M316.665649,157.428787 
	C316.510406,143.136505 315.932037,128.841919 316.688934,114.553276 
	C316.926178,110.075150 314.479858,109.415268 310.735535,109.425026 
	C286.091095,109.489265 261.467712,111.053909 236.792038,109.517746 
	C223.012405,108.659912 209.135406,109.369293 195.302292,109.366241 
	C185.970154,109.364189 186.021835,109.359268 186.035034,118.492897 
	C186.058121,134.479996 186.167953,150.469940 185.889771,166.452560 
	C185.813828,170.816452 187.383270,172.058899 191.372345,171.788101 
	C194.690918,171.562820 198.035782,171.700851 201.368820,171.716049 
	C224.671921,171.822235 247.985687,171.553452 271.273865,172.201187 
	C284.432037,172.567169 297.527802,171.365845 310.659210,171.784683 
	C313.133057,171.863586 315.400757,171.479218 315.679871,168.269012 
	C315.967560,164.960052 316.331787,161.657761 316.665649,157.428787 
M296.441406,306.516083 
	C300.935242,306.565918 305.435730,306.482330 309.920898,306.706177 
	C313.759827,306.897797 315.626770,305.964722 315.587036,301.476471 
	C315.433868,284.167145 315.613495,266.853516 315.826019,249.543396 
	C315.872864,245.726974 314.574585,244.152664 310.629791,244.164413 
	C271.148407,244.281876 231.666580,244.342300 192.185257,244.252319 
	C187.547241,244.241760 186.078705,246.020065 186.096024,250.446701 
	C186.161850,267.270111 186.059402,284.095215 185.864273,300.917877 
	C185.814697,305.193726 187.462128,306.817993 191.775513,306.797119 
	C226.405762,306.629730 261.036713,306.607178 296.441406,306.516083 
M449.380188,681.089294 
	C449.216583,678.937195 448.644226,676.722107 448.963959,674.644409 
	C450.034637,667.686584 449.713440,660.702515 449.877686,653.721802 
	C449.971619,649.729858 449.095703,647.786377 444.314545,647.861511 
	C430.546906,648.078003 416.773682,647.855286 402.996338,647.976074 
	C377.541473,648.199402 352.078522,647.689697 326.621613,647.305298 
	C322.151489,647.237793 320.290344,648.692261 320.310394,653.290283 
	C320.385162,670.447083 320.266815,687.605225 320.128967,704.762085 
	C320.103271,707.962769 321.086578,709.912109 324.577759,709.958191 
	C337.703125,710.131409 350.829315,710.521240 363.953186,710.451721 
	C375.224640,710.392029 386.487244,709.927185 397.770935,710.164124 
	C413.885590,710.502502 430.008850,710.412903 446.127380,710.598938 
	C449.172394,710.634033 450.220703,709.491028 450.095734,706.431274 
	C449.763336,698.291687 449.693939,690.141418 449.380188,681.089294 
M642.502686,109.323540 
	C627.341736,109.338272 612.180359,109.422745 597.020203,109.319313 
	C593.169373,109.293037 591.151306,110.310028 591.175537,114.640816 
	C591.272583,131.965454 591.195496,149.291748 591.060242,166.616455 
	C591.032043,170.229599 592.332275,171.802231 596.053528,171.583023 
	C608.019714,170.878098 620.000183,170.959656 631.983032,171.076981 
	C645.453064,171.208893 658.951355,169.789474 672.351746,170.246643 
	C687.313599,170.757111 702.254333,170.334427 717.194336,170.772446 
	C720.937012,170.882172 721.819824,169.111679 721.692566,165.919342 
	C721.015991,148.958786 723.130127,132.058640 722.808472,115.100174 
	C722.692139,108.967613 722.394409,108.397697 716.429443,108.460739 
	C692.120300,108.717628 667.811584,109.017319 642.502686,109.323540 
M787.047974,900.339783 
	C787.220520,884.553528 787.334412,868.766296 787.610779,852.981873 
	C787.672424,849.461121 786.823425,848.041687 782.838745,848.090027 
	C762.699768,848.334412 742.556641,848.219727 722.414917,848.246948 
	C702.272583,848.274109 682.130249,848.327759 661.987915,848.349182 
	C659.156067,848.352234 656.455750,848.426819 656.479919,852.325195 
	C656.591370,870.298218 656.008118,888.272705 656.698730,906.246460 
	C656.837341,909.852966 658.418701,910.557068 661.734802,910.481934 
	C676.477478,910.147888 691.225891,910.013062 705.972839,909.933960 
	C731.432556,909.797363 756.892761,909.692261 782.352478,909.742065 
	C786.170288,909.749573 787.545044,908.419495 787.025391,904.744263 
	C786.864380,903.605469 787.046204,902.418335 787.047974,900.339783 
M860.495850,253.608200 
	C860.463013,268.763000 860.541260,283.919373 860.329224,299.071686 
	C860.266418,303.560120 862.138855,304.897186 866.320496,304.774597 
	C874.291138,304.540955 882.270874,304.567749 890.246765,304.576569 
	C922.050537,304.611847 953.854553,304.645721 985.657959,304.783508 
	C989.742432,304.801239 991.675659,303.691254 991.620117,299.111481 
	C991.414185,282.134430 991.499451,265.152863 991.604553,248.173782 
	C991.630493,243.980850 989.674011,242.854477 985.782288,242.865494 
	C945.979126,242.977936 906.175537,243.000809 866.372253,242.949631 
	C862.193115,242.944260 860.035095,244.361786 860.406006,248.759277 
	C860.517700,250.083176 860.446899,251.422470 860.495850,253.608200 
M942.977295,709.383545 
	C956.917847,709.331726 970.861145,709.104004 984.797302,709.327576 
	C989.409546,709.401489 990.712341,707.962952 990.857788,703.374573 
	C991.217468,692.029175 988.941895,680.775635 989.917664,669.456055 
	C990.417725,663.654358 990.520996,657.863281 990.617493,652.053650 
	C990.682068,648.171692 989.608337,646.612366 985.243408,646.619263 
	C970.311584,646.642944 955.385071,646.762695 940.453430,646.911377 
	C916.001282,647.154907 891.539490,646.611389 867.084412,646.233704 
	C862.791565,646.167358 861.159241,647.669983 861.127319,651.990662 
	C861.001892,668.962524 860.740234,685.935364 860.293762,702.901672 
	C860.172363,707.512878 861.934875,709.124268 866.413940,709.036377 
	C879.527710,708.778992 892.646179,708.673096 905.762756,708.678650 
	C917.901978,708.683777 930.049683,708.497009 942.977295,709.383545 
M451.988892,152.498352 
	C452.104980,140.023590 451.316376,127.535622 452.507019,115.076843 
	C452.886353,111.107368 451.430328,109.212524 447.150848,109.401169 
	C441.504059,109.650070 435.835968,109.362511 430.181061,109.487717 
	C396.744049,110.228096 363.308563,110.641922 329.869415,109.582893 
	C321.342834,109.312859 321.206848,109.553360 321.052612,117.831947 
	C320.748840,134.131134 322.047028,150.452087 320.435516,166.731293 
	C320.021790,170.910538 322.193787,171.774582 325.836761,171.764252 
	C348.307495,171.700592 370.778687,171.821442 393.249542,171.783051 
	C411.206848,171.752365 429.164276,171.490158 447.120911,171.547913 
	C450.985199,171.560349 452.080444,169.969833 451.976776,166.482681 
	C451.848206,162.158432 451.975647,157.826538 451.988892,152.498352 
M381.757172,869.571716 
	C382.027863,864.091370 382.266205,858.609192 382.581146,853.131348 
	C382.774170,849.774231 381.352753,848.198914 377.914093,848.268738 
	C372.920685,848.370178 367.923706,848.315369 362.928345,848.300476 
	C328.299377,848.197021 293.670380,848.090454 259.041412,847.974731 
	C253.032913,847.954590 252.484146,848.390808 252.555298,854.386475 
	C252.750793,870.857727 253.015167,887.328125 253.271011,903.798645 
	C253.377762,910.671204 253.581345,910.896973 260.312714,910.896606 
	C296.756622,910.894653 333.200653,910.910645 369.644257,910.795776 
	C373.711243,910.782959 377.876953,911.225830 381.739471,910.190308 
	C381.739471,896.755127 381.739471,883.653076 381.757172,869.571716 
M50.797211,783.121765 
	C49.876152,783.963806 49.495255,785.053650 49.492992,786.255493 
	C49.459187,804.230530 49.443001,822.205627 49.414574,840.180664 
	C49.410095,843.013428 51.132492,843.967529 53.605263,843.972534 
	C56.758892,843.978882 59.912708,843.819153 63.066525,843.816223 
	C98.834282,843.782898 134.602051,843.771118 170.369827,843.740967 
	C179.511322,843.733215 179.584259,843.641663 179.774704,834.671570 
	C179.792358,833.839417 179.790085,833.004700 179.857635,832.176086 
	C181.111847,816.793091 179.880707,801.369751 180.621063,785.980469 
	C180.776260,782.754150 179.438080,781.315979 176.227371,781.590942 
	C173.419373,781.831482 170.610046,782.247986 167.800766,782.252563 
	C134.677963,782.306030 101.555023,782.279053 68.432182,782.320374 
	C62.784904,782.327393 57.137905,782.556030 50.797211,783.121765 
M551.499939,849.051575 
	C543.008301,848.925659 534.512268,848.922546 526.027283,848.613892 
	C522.598999,848.489197 521.296631,849.328247 521.507751,853.074707 
	C522.491455,870.535461 522.428833,888.019348 522.047241,905.499756 
	C521.970825,908.998718 523.294373,910.759583 527.021118,910.667664 
	C533.161987,910.516113 539.308716,910.557312 545.452698,910.584290 
	C579.161499,910.732178 612.870667,909.712402 646.577881,910.592163 
	C650.968323,910.706726 652.801697,909.229187 652.736572,904.512634 
	C652.513245,888.353760 652.692932,872.189636 652.685425,856.027466 
	C652.681824,848.249207 652.647827,848.232483 644.921082,848.294006 
	C614.113953,848.539429 583.306946,848.796204 551.499939,849.051575 
M77.521378,245.022797 
	C70.043983,244.887863 62.566914,244.727478 55.089031,244.629791 
	C51.819523,244.587067 50.327679,246.057800 50.574268,249.548599 
	C51.783684,266.669159 50.690399,283.800812 50.529537,300.925629 
	C50.489220,305.217987 51.726669,306.944183 56.134174,306.929199 
	C95.749481,306.794678 135.365295,306.732666 174.980682,306.806763 
	C179.740417,306.815674 180.848495,304.816925 180.809265,300.460754 
	C180.659470,283.825104 180.686081,267.184875 180.931992,250.550537 
	C181.003601,245.706329 179.264328,244.173538 174.501022,244.280106 
	C161.649979,244.567688 148.797180,244.732986 135.931351,244.574814 
	C116.797272,244.339615 97.654076,244.846191 77.521378,245.022797 
M807.500244,108.286758 
	C783.194153,108.326553 758.888062,108.352829 734.582031,108.415237 
	C728.151184,108.431747 727.304504,109.224258 727.182434,115.473633 
	C726.867310,131.610718 726.598206,147.748795 726.351685,163.887115 
	C726.249390,170.582108 727.014221,171.367401 733.798035,170.941437 
	C744.863647,170.246613 755.937256,170.058319 767.008179,170.444656 
	C778.280457,170.837982 789.518311,170.059250 800.771545,169.899536 
	C817.737000,169.658737 834.708984,169.873016 851.678223,169.909164 
	C854.863831,169.915955 856.261047,168.762360 856.522766,165.200684 
	C857.769409,148.238068 856.399658,131.274597 856.905457,114.323555 
	C857.059265,109.168358 854.747009,107.794685 849.948792,107.905418 
	C836.137024,108.224152 822.317078,108.183792 807.500244,108.286758 
M523.559448,72.224747 
	C523.557922,77.880852 523.596436,83.537315 523.547180,89.193001 
	C523.406677,105.324158 523.388245,105.104362 539.739441,104.780907 
	C561.143677,104.357498 582.577637,103.650551 603.956787,104.350014 
	C619.280212,104.851357 634.495300,102.863823 649.775757,103.726540 
	C652.732727,103.893494 653.984680,102.940529 654.117371,99.406670 
	C654.759399,82.310066 654.787109,65.215881 654.858826,48.114513 
	C654.879517,43.179913 653.009766,41.707458 648.342041,41.906277 
	C635.714111,42.444160 623.075500,42.903152 610.437988,43.004944 
	C584.135559,43.216805 557.831116,43.172089 531.527466,43.246075 
	C524.566956,43.265652 524.647949,43.295418 524.022400,49.958733 
	C523.352234,57.098221 523.417114,64.241379 523.559448,72.224747 
M322.193237,245.122986 
	C320.295441,245.989761 320.343750,247.717392 320.339203,249.392715 
	C320.291718,266.885986 320.278992,284.379425 320.194794,301.872498 
	C320.178558,305.242981 321.651245,306.714630 325.027039,306.662689 
	C337.447540,306.471558 349.847504,305.792206 362.297760,306.423096 
	C372.214386,306.925629 382.186279,306.235779 392.133118,306.265411 
	C409.929443,306.318420 427.726013,306.459808 445.520874,306.691162 
	C449.747070,306.746094 450.957947,304.823547 450.873291,300.871887 
	C450.691589,292.387512 450.873871,283.895935 450.853333,275.407410 
	C450.832001,266.585388 450.737427,257.763519 450.697327,248.941528 
	C450.687622,246.805176 450.596924,244.903091 447.653656,244.871124 
	C444.001923,244.831497 440.351288,244.436539 436.702057,244.461929 
	C422.081299,244.563583 407.461609,244.867386 392.840942,244.912643 
	C369.527222,244.984787 346.213043,244.910309 322.193237,245.122986 
M479.028320,104.639969 
	C490.507843,104.651711 501.987488,104.699440 513.466736,104.649559 
	C516.290588,104.637299 519.180847,104.820221 519.352417,100.468964 
	C520.041992,82.977242 519.472412,65.488411 519.492371,47.998951 
	C519.496338,44.549988 518.118713,43.138390 514.357117,43.152657 
	C474.531555,43.303730 434.705200,43.316936 394.879364,43.237881 
	C390.514099,43.229218 389.201538,44.946354 389.011292,49.161030 
	C388.260132,65.802681 388.756805,82.450073 388.399933,99.088562 
	C388.309326,103.311073 390.036926,104.828690 394.026428,104.616005 
	C406.297577,103.961815 418.572906,104.432732 430.846130,104.426239 
	C446.619049,104.417900 462.390167,104.356369 479.028320,104.639969 
M384.387299,87.367195 
	C384.481018,76.245544 384.613953,65.124054 384.658447,54.002205 
	C384.713623,40.222378 385.433472,42.958847 373.655487,42.983501 
	C335.703094,43.062939 297.750549,43.047813 259.798126,43.103935 
	C253.509888,43.113235 252.909210,43.744110 252.894272,49.949059 
	C252.854218,66.586823 252.869492,83.224724 252.832245,99.862495 
	C252.825623,102.824692 253.866241,104.790451 257.148102,104.604370 
	C269.751831,103.889748 282.345306,103.951805 294.966705,104.346924 
	C305.551056,104.678276 316.183472,103.697128 326.754547,104.177666 
	C343.697388,104.947853 360.630371,104.376686 377.562714,104.680595 
	C381.992310,104.760101 384.053162,103.323799 383.852936,98.683037 
	C383.703094,95.209312 384.120667,91.711113 384.387299,87.367195 
M659.179138,93.238190 
	C659.171570,94.403557 659.235657,95.574547 659.144592,96.733353 
	C658.634888,103.218391 659.013489,103.688560 665.331970,103.679031 
	C671.647400,103.669502 677.962769,103.588356 684.278137,103.542175 
	C698.888184,103.435341 713.498169,103.257301 728.108276,103.243607 
	C746.555420,103.226311 765.002625,103.359398 783.449829,103.390923 
	C787.561646,103.397949 789.721497,101.873955 789.663635,97.119987 
	C789.465271,80.809151 789.558655,64.491730 789.794495,48.180489 
	C789.865051,43.303585 787.876160,41.743759 783.239990,41.917992 
	C774.924072,42.230507 766.594604,42.250298 758.270569,42.266331 
	C727.460510,42.325672 696.650024,42.407379 665.840515,42.284752 
	C660.963379,42.265343 659.116943,43.691730 659.209778,48.838062 
	C659.470886,63.319401 659.210632,77.810143 659.179138,93.238190 
M823.942810,103.091637 
	C835.225769,102.959732 846.506409,103.738976 857.797363,102.842972 
	C863.748779,102.370689 869.751587,102.419342 875.730347,102.443321 
	C890.381104,102.502083 905.031372,102.690933 919.681946,102.808479 
	C922.718628,102.832848 924.584045,102.031631 924.588440,98.237473 
	C924.608215,81.289467 924.740723,64.336647 925.234741,47.397285 
	C925.375488,42.572529 923.629272,41.250095 919.218201,41.402863 
	C909.403748,41.742764 899.569214,42.214794 889.762634,41.936321 
	C859.797546,41.085438 829.839600,41.849953 799.878906,41.875587 
	C795.928589,41.878967 794.180054,43.371738 794.200623,47.505783 
	C794.283203,64.148384 794.215637,80.792519 794.069275,97.434891 
	C794.036499,101.160400 795.406799,102.725182 799.220215,103.113258 
	C807.207031,103.926056 815.144958,103.044586 823.942810,103.091637 
M218.884415,782.209351 
	C209.265427,782.127563 199.637497,782.263367 190.031372,781.868591 
	C185.494949,781.682251 184.249512,783.384705 184.338959,787.617493 
	C184.686859,804.080627 184.893661,820.548218 184.957962,837.014893 
	C184.974136,841.160400 186.346848,842.930176 190.693207,843.187805 
	C205.662598,844.074951 220.641235,843.700317 235.601318,843.552917 
	C249.558975,843.415344 263.521210,843.646362 277.490723,843.279907 
	C287.888672,843.007141 298.400055,843.555115 308.864777,843.656006 
	C312.554596,843.691528 313.762939,842.338623 313.758911,838.662598 
	C313.740692,822.076904 313.977081,805.490967 314.098511,788.904968 
	C314.147247,782.250732 314.118500,782.093689 307.642242,782.160217 
	C278.364746,782.460754 249.086853,781.336670 218.884415,782.209351 
z"/>
</svg>